o SelectorCylinder
v 0.8 0.018538335146920434 0.0075053400975874833
v 0.68 0.018538335146920434 0.0075053400975874833
v 0.68 0.017426374082467787 0.009814351040078757
v 0.8 0.017426374082467787 0.009814351040078757
v 0.68 0.0056905517326206493 0.019173357060733212
v 0.8 0.0056905517326206493 0.019173357060733212
v 0.68 0.0031919979006675863 0.019743635668289003
v 0.8 0.0031919979006675863 0.019743635668289003
v 0.68 -0.011442333202443396 0.016403445091939115
v 0.8 -0.011442333202443396 0.016403445091939115
v 0.68 -0.013446017805226331 0.014805559941506315
v 0.8 -0.013446017805226331 0.014805559941506315
v 0.68 -0.019958907855006727 0.0012814043996142647
v 0.8 -0.019958907855006727 0.0012814043996142647
v 0.68 -0.019958907855006727 -0.00128140439961426
v 0.8 -0.019958907855006727 -0.00128140439961426
v 0.68 -0.013446017805226335 -0.014805559941506313
v 0.8 -0.013446017805226335 -0.014805559941506313
v 0.68 -0.0114423332024434 -0.016403445091939112
v 0.8 -0.0114423332024434 -0.016403445091939112
v 0.68 0.0031919979006675859 -0.019743635668289003
v 0.8 0.0031919979006675859 -0.019743635668289003
v 0.68 0.00569055173262064 -0.019173357060733216
v 0.8 0.00569055173262064 -0.019173357060733216
v 0.68 0.017426374082467781 -0.0098143510400787726
v 0.8 0.017426374082467781 -0.0098143510400787726
v 0.68 0.018538335146920434 -0.007505340097587492
v 0.8 0.018538335146920434 -0.007505340097587492
v 0.66 0.018538335146920434 0.0075053400975874833
v 0.66 0.017426374082467787 0.009814351040078757
v 0.66 0.0056905517326206493 0.019173357060733212
v 0.66 0.0031919979006675863 0.019743635668289003
v 0.66 -0.011442333202443396 0.016403445091939115
v 0.66 -0.013446017805226331 0.014805559941506315
v 0.66 -0.019958907855006727 0.0012814043996142647
v 0.66 -0.019958907855006727 -0.00128140439961426
v 0.66 -0.013446017805226335 -0.014805559941506313
v 0.66 -0.0114423332024434 -0.016403445091939112
v 0.66 0.0031919979006675859 -0.019743635668289003
v 0.66 0.00569055173262064 -0.019173357060733216
v 0.66 0.017426374082467781 -0.0098143510400787726
v 0.66 0.018538335146920434 -0.007505340097587492
v 0.58 0.18538335146920437 0.075053400975874832
v 0.58 0.17426374082467788 0.098143510400787573
v 0.58 0.056905517326206495 0.19173357060733212
v 0.58 0.031919979006675862 0.19743635668289003
v 0.58 -0.11442333202443396 0.16403445091939117
v 0.58 -0.13446017805226332 0.14805559941506316
v 0.58 -0.19958907855006727 0.012814043996142646
v 0.58 -0.19958907855006727 -0.0128140439961426
v 0.58 -0.13446017805226335 -0.14805559941506313
v 0.58 -0.114423332024434 -0.16403445091939114
v 0.58 0.031919979006675862 -0.19743635668289006
v 0.58 0.056905517326206405 -0.19173357060733218
v 0.58 0.1742637408246778 -0.098143510400787726
v 0.58 0.18538335146920434 -0.075053400975874929
v 0.56 0.18538335146920437 0.075053400975874832
v 0.56 0.17426374082467788 0.098143510400787573
v 0.56 0.056905517326206495 0.19173357060733212
v 0.56 0.031919979006675862 0.19743635668289003
v 0.56 -0.11442333202443396 0.16403445091939117
v 0.56 -0.13446017805226332 0.14805559941506316
v 0.56 -0.19958907855006727 0.012814043996142646
v 0.56 -0.19958907855006727 -0.0128140439961426
v 0.56 -0.13446017805226335 -0.14805559941506313
v 0.56 -0.114423332024434 -0.16403445091939114
v 0.56 0.031919979006675862 -0.19743635668289006
v 0.56 0.056905517326206405 -0.19173357060733218
v 0.56 0.1742637408246778 -0.098143510400787726
v 0.56 0.18538335146920434 -0.075053400975874929
v -0.56 0.18538335146920437 0.075053400975874832
v -0.56 0.17426374082467788 0.098143510400787573
v -0.56 0.056905517326206495 0.19173357060733212
v -0.56 0.031919979006675862 0.19743635668289003
v -0.56 -0.11442333202443396 0.16403445091939117
v -0.56 -0.13446017805226332 0.14805559941506316
v -0.56 -0.19958907855006727 0.012814043996142646
v -0.56 -0.19958907855006727 -0.0128140439961426
v -0.56 -0.13446017805226335 -0.14805559941506313
v -0.56 -0.114423332024434 -0.16403445091939114
v -0.56 0.031919979006675862 -0.19743635668289006
v -0.56 0.056905517326206405 -0.19173357060733218
v -0.56 0.1742637408246778 -0.098143510400787726
v -0.56 0.18538335146920434 -0.075053400975874929
v -0.58 0.18538335146920437 0.075053400975874832
v -0.58 0.17426374082467788 0.098143510400787573
v -0.58 0.056905517326206495 0.19173357060733212
v -0.58 0.031919979006675862 0.19743635668289003
v -0.58 -0.11442333202443396 0.16403445091939117
v -0.58 -0.13446017805226332 0.14805559941506316
v -0.58 -0.19958907855006727 0.012814043996142646
v -0.58 -0.19958907855006727 -0.0128140439961426
v -0.58 -0.13446017805226335 -0.14805559941506313
v -0.58 -0.114423332024434 -0.16403445091939114
v -0.58 0.031919979006675862 -0.19743635668289006
v -0.58 0.056905517326206405 -0.19173357060733218
v -0.58 0.1742637408246778 -0.098143510400787726
v -0.58 0.18538335146920434 -0.075053400975874929
v -0.66 0.018538335146920434 0.0075053400975874833
v -0.66 0.017426374082467787 0.009814351040078757
v -0.66 0.0056905517326206493 0.019173357060733212
v -0.66 0.0031919979006675863 0.019743635668289003
v -0.66 -0.011442333202443396 0.016403445091939115
v -0.66 -0.013446017805226331 0.014805559941506315
v -0.66 -0.019958907855006727 0.0012814043996142647
v -0.66 -0.019958907855006727 -0.00128140439961426
v -0.66 -0.013446017805226335 -0.014805559941506313
v -0.66 -0.0114423332024434 -0.016403445091939112
v -0.66 0.0031919979006675859 -0.019743635668289003
v -0.66 0.00569055173262064 -0.019173357060733216
v -0.66 0.017426374082467781 -0.0098143510400787726
v -0.66 0.018538335146920434 -0.007505340097587492
v -0.68 0.018538335146920434 0.0075053400975874833
v -0.68 0.017426374082467787 0.009814351040078757
v -0.68 0.0056905517326206493 0.019173357060733212
v -0.68 0.0031919979006675863 0.019743635668289003
v -0.68 -0.011442333202443396 0.016403445091939115
v -0.68 -0.013446017805226331 0.014805559941506315
v -0.68 -0.019958907855006727 0.0012814043996142647
v -0.68 -0.019958907855006727 -0.00128140439961426
v -0.68 -0.013446017805226335 -0.014805559941506313
v -0.68 -0.0114423332024434 -0.016403445091939112
v -0.68 0.0031919979006675859 -0.019743635668289003
v -0.68 0.00569055173262064 -0.019173357060733216
v -0.68 0.017426374082467781 -0.0098143510400787726
v -0.68 0.018538335146920434 -0.007505340097587492
v -0.8 0.018538335146920434 0.0075053400975874833
v -0.8 0.017426374082467787 0.009814351040078757
v -0.8 0.0056905517326206493 0.019173357060733212
v -0.8 0.0031919979006675863 0.019743635668289003
v -0.8 -0.011442333202443396 0.016403445091939115
v -0.8 -0.013446017805226331 0.014805559941506315
v -0.8 -0.019958907855006727 0.0012814043996142647
v -0.8 -0.019958907855006727 -0.00128140439961426
v -0.8 -0.013446017805226335 -0.014805559941506313
v -0.8 -0.0114423332024434 -0.016403445091939112
v -0.8 0.0031919979006675859 -0.019743635668289003
v -0.8 0.00569055173262064 -0.019173357060733216
v -0.8 0.017426374082467781 -0.0098143510400787726
v -0.8 0.018538335146920434 -0.007505340097587492
vn 0 0.001801281623420997 0
vn 0 0.0011230807224785345 0.0014082986819816564
vn 0 -0.00040082286916198653 0.0017561197323733178
vn 0 -0.001622898665027046 0.00078154680597364746
vn 0 -0.0016228986650270462 -0.000781546805973647
vn 0 -0.00040082286916198691 -0.0017561197323733182
vn 0 0.0011230807224785332 -0.0014082986819816568
vn 0.0025044571821725529 0.0012008544156139991 0
vn 0.0025044571821725512 0.000748720481652357 0.00093886578798777181
vn 0.0025044571821725508 0.000748720481652357 0.00093886578798777181
vn 0.0025044571821725521 -0.00026721524610799125 0.0011707464882488795
vn 0.0025044571821725512 -0.001081932443351365 0.00052103120398243211
vn 0.0025044571821725512 -0.0010819324433513652 -0.00052103120398243178
vn 0.0025044571821725525 -0.00026721524610799153 -0.00117074648824888
vn 0.0025044571821725508 0.00074872048165235616 -0.00093886578798777214
vn 0.0025044571821725503 0.00074872048165235616 -0.00093886578798777214
vn 0.0025044571821725525 0.0012008544156139991 0
vn 0.025044571821725526 0.012008544156139991 -2.2204460492503151E-18
vn 0.025044571821725512 0.0074872048165235709 0.00938865787987772
vn 0.025044571821725509 0.0074872048165235709 0.00938865787987772
vn 0.025044571821725519 -0.0026721524610799109 0.011707464882488795
vn 0.025044571821725516 -0.010819324433513652 0.0052103120398243209
vn 0.025044571821725512 -0.010819324433513652 0.0052103120398243209
vn 0.025044571821725509 -0.010819324433513652 -0.0052103120398243191
vn 0.025044571821725512 -0.010819324433513652 -0.0052103120398243191
vn 0.025044571821725529 -0.0026721524610799153 -0.0117074648824888
vn 0.025044571821725526 -0.0026721524610799153 -0.0117074648824888
vn 0.025044571821725505 0.0074872048165235631 -0.00938865787987772
vn 0 0.0030021360390349808 -5.5511151231257568E-19
vn 0 0.0018718012041308823 0.0023471644699694168
vn 0 -0.000668038115269974 0.0029268662206221826
vn 0 -0.0027048311083783978 0.0013025780099560731
vn 0 -0.0027048311083783978 -0.0013025780099560724
vn 0 -0.00066803811526997513 -0.0029268662206221839
vn 0 0.0018718012041308804 -0.0023471644699694168
vn 0 0.16811961818595972 -3.1086244689504386E-17
vn 0 0.1048208674313299 0.13144121031828795
vn 0 -0.037410134455118725 0.163904508354843
vn 0 -0.151470542069191 0.07294436855754044
vn 0 -0.151470542069191 -0.0729443685575404
vn 0 -0.037410134455118788 -0.16390450835484308
vn 0 0.10482086743132979 -0.13144121031828795
vn -0.025044571821725526 0.012008544156139991 -2.2204460492503151E-18
vn -0.025044571821725512 0.0074872048165235709 0.00938865787987772
vn -0.025044571821725509 0.0074872048165235709 0.00938865787987772
vn -0.025044571821725519 -0.0026721524610799109 0.011707464882488795
vn -0.025044571821725516 -0.010819324433513652 0.0052103120398243209
vn -0.025044571821725512 -0.010819324433513652 0.0052103120398243209
vn -0.025044571821725509 -0.010819324433513652 -0.0052103120398243191
vn -0.025044571821725512 -0.010819324433513652 -0.0052103120398243191
vn -0.025044571821725529 -0.0026721524610799153 -0.0117074648824888
vn -0.025044571821725526 -0.0026721524610799153 -0.0117074648824888
vn -0.025044571821725505 0.0074872048165235631 -0.00938865787987772
vn -0.0025044571821725529 0.0012008544156139991 0
vn -0.0025044571821725512 0.000748720481652357 0.00093886578798777181
vn -0.0025044571821725508 0.000748720481652357 0.00093886578798777181
vn -0.0025044571821725521 -0.00026721524610799125 0.0011707464882488795
vn -0.0025044571821725512 -0.001081932443351365 0.00052103120398243211
vn -0.0025044571821725512 -0.0010819324433513652 -0.00052103120398243178
vn -0.0025044571821725525 -0.00026721524610799153 -0.00117074648824888
vn -0.0025044571821725508 0.00074872048165235616 -0.00093886578798777214
vn -0.0025044571821725503 0.00074872048165235616 -0.00093886578798777214
vn -0.0025044571821725525 0.0012008544156139991 0
f 1//1 2//1 3//2 4//2
f 4//2 3//2 5//2 6//2
f 6//2 5//2 7//3 8//3
f 8//3 7//3 9//3 10//3
f 10//3 9//3 11//4 12//4
f 12//4 11//4 13//4 14//4
f 14//4 13//4 15//5 16//5
f 16//5 15//5 17//5 18//5
f 18//5 17//5 19//6 20//6
f 20//6 19//6 21//6 22//6
f 22//6 21//6 23//7 24//7
f 24//7 23//7 25//7 26//7
f 26//7 25//7 27//1 28//1
f 28//1 27//1 2//1 1//1
f 2//1 29//8 30//9 3//2
f 3//2 30//9 31//10 5//2
f 5//2 31//10 32//11 7//3
f 7//3 32//11 33//11 9//3
f 9//3 33//11 34//12 11//4
f 11//4 34//12 35//12 13//4
f 13//4 35//12 36//13 15//5
f 15//5 36//13 37//13 17//5
f 17//5 37//13 38//14 19//6
f 19//6 38//14 39//14 21//6
f 21//6 39//14 40//15 23//7
f 23//7 40//15 41//16 25//7
f 25//7 41//16 42//17 27//1
f 27//1 42//17 29//8 2//1
f 29//8 43//18 44//19 30//9
f 30//9 44//19 45//20 31//10
f 31//10 45//20 46//21 32//11
f 32//11 46//21 47//21 33//11
f 33//11 47//21 48//22 34//12
f 34//12 48//22 49//23 35//12
f 35//12 49//23 50//24 36//13
f 36//13 50//24 51//25 37//13
f 37//13 51//25 52//26 38//14
f 38//14 52//26 53//27 39//14
f 39//14 53//27 54//28 40//15
f 40//15 54//28 55//28 41//16
f 41//16 55//28 56//18 42//17
f 42//17 56//18 43//18 29//8
f 43//18 57//29 58//30 44//19
f 44//19 58//30 59//30 45//20
f 45//20 59//30 60//31 46//21
f 46//21 60//31 61//31 47//21
f 47//21 61//31 62//32 48//22
f 48//22 62//32 63//32 49//23
f 49//23 63//32 64//33 50//24
f 50//24 64//33 65//33 51//25
f 51//25 65//33 66//34 52//26
f 52//26 66//34 67//34 53//27
f 53//27 67//34 68//35 54//28
f 54//28 68//35 69//35 55//28
f 55//28 69//35 70//29 56//18
f 56//18 70//29 57//29 43//18
f 57//36 71//36 72//37 58//37
f 58//37 72//37 73//37 59//37
f 59//37 73//37 74//38 60//38
f 60//38 74//38 75//38 61//38
f 61//38 75//38 76//39 62//39
f 62//39 76//39 77//39 63//39
f 63//39 77//39 78//40 64//40
f 64//40 78//40 79//40 65//40
f 65//40 79//40 80//41 66//41
f 66//41 80//41 81//41 67//41
f 67//41 81//41 82//42 68//42
f 68//42 82//42 83//42 69//42
f 69//42 83//42 84//36 70//36
f 70//36 84//36 71//36 57//36
f 71//29 85//43 86//44 72//30
f 72//30 86//44 87//45 73//30
f 73//30 87//45 88//46 74//31
f 74//31 88//46 89//46 75//31
f 75//31 89//46 90//47 76//32
f 76//32 90//47 91//48 77//32
f 77//32 91//48 92//49 78//33
f 78//33 92//49 93//50 79//33
f 79//33 93//50 94//51 80//34
f 80//34 94//51 95//52 81//34
f 81//34 95//52 96//53 82//35
f 82//35 96//53 97//53 83//35
f 83//35 97//53 98//43 84//29
f 84//29 98//43 85//43 71//29
f 85//43 99//54 100//55 86//44
f 86//44 100//55 101//56 87//45
f 87//45 101//56 102//57 88//46
f 88//46 102//57 103//57 89//46
f 89//46 103//57 104//58 90//47
f 90//47 104//58 105//58 91//48
f 91//48 105//58 106//59 92//49
f 92//49 106//59 107//59 93//50
f 93//50 107//59 108//60 94//51
f 94//51 108//60 109//60 95//52
f 95//52 109//60 110//61 96//53
f 96//53 110//61 111//62 97//53
f 97//53 111//62 112//63 98//43
f 98//43 112//63 99//54 85//43
f 99//54 113//1 114//2 100//55
f 100//55 114//2 115//2 101//56
f 101//56 115//2 116//3 102//57
f 102//57 116//3 117//3 103//57
f 103//57 117//3 118//4 104//58
f 104//58 118//4 119//4 105//58
f 105//58 119//4 120//5 106//59
f 106//59 120//5 121//5 107//59
f 107//59 121//5 122//6 108//60
f 108//60 122//6 123//6 109//60
f 109//60 123//6 124//7 110//61
f 110//61 124//7 125//7 111//62
f 111//62 125//7 126//1 112//63
f 112//63 126//1 113//1 99//54
f 113//1 127//1 128//2 114//2
f 114//2 128//2 129//2 115//2
f 115//2 129//2 130//3 116//3
f 116//3 130//3 131//3 117//3
f 117//3 131//3 132//4 118//4
f 118//4 132//4 133//4 119//4
f 119//4 133//4 134//5 120//5
f 120//5 134//5 135//5 121//5
f 121//5 135//5 136//6 122//6
f 122//6 136//6 137//6 123//6
f 123//6 137//6 138//7 124//7
f 124//7 138//7 139//7 125//7
f 125//7 139//7 140//1 126//1
f 126//1 140//1 127//1 113//1
