o SelectorFrame
v -0.95 0 -0.95
v -0.95 0.001 -0.95
v -0.95 0.001 -0.60000000000000009
v -0.95 0 -0.60000000000000009
v 0.45 0.001 -0.60000000000000009
v 0.45 0 -0.60000000000000009
v 0.45 0.001 -0.95
v 0.45 0 -0.95
v -0.97 0.02 -0.97
v -0.97 0.02 -0.58000000000000007
v 0.47 0.02 -0.58000000000000007
v 0.47 0.02 -0.97
v -0.98 0.02 -0.98
v -0.98 0.02 -0.57000000000000006
v 0.48 0.02 -0.57000000000000006
v 0.48 0.02 -0.98
v -1 0.001 -1
v -1 0.001 -0.55
v 0.5 0.001 -0.55
v 0.5 0.001 -1
v -1 0 -1
v -1 0 -0.55
v 0.5 0 -0.55
v 0.5 0 -1
vn 0.00034999999999999989 0 0
vn 0 0 -0.0014
vn -0.00034999999999999989 0 0
vn 0 0 0.0014
vn 0 0.0039000000000000024 0
vn 0 0.014400000000000012 0
vn 0 0.0041000000000000029 0
vn 0 0.014600000000000012 0
vn -0.00045 0 0
vn 0 0 0.0015
vn 0.00045 0 0
vn 0 0 -0.0015
vn 0 -0.022500000000000017 0
vn 0 -0.017500000000000009 0
vn 0 -0.075000000000000067 0
vn 0 -0.070000000000000062 0
vn 0 -0.022499999999999992 0
vn 0 -0.017499999999999988 0
f 1//1 2//1 3//1 4//1
f 4//2 3//2 5//2 6//2
f 6//3 5//3 7//3 8//3
f 8//4 7//4 2//4 1//4
f 2//1 9//5 10//5 3//1
f 3//2 10//6 11//6 5//2
f 5//3 11//5 12//5 7//3
f 7//4 12//6 9//6 2//4
f 9//5 13//7 14//7 10//5
f 10//6 14//8 15//8 11//6
f 11//5 15//7 16//7 12//5
f 12//6 16//8 13//8 9//6
f 13//7 17//9 18//9 14//7
f 14//8 18//10 19//10 15//8
f 15//7 19//11 20//11 16//7
f 16//8 20//12 17//12 13//8
f 17//9 21//9 22//9 18//9
f 18//10 22//10 23//10 19//10
f 19//11 23//11 24//11 20//11
f 20//12 24//12 21//12 17//12
f 21//13 1//14 4//14 22//13
f 22//15 4//16 6//16 23//15
f 23//17 6//18 8//18 24//17
f 24//15 8//16 1//16 21//15
