o SelectorFrame
v -0.95 0 -0.95
v -0.95008164455459976 0.0015774894299460562 -0.95008164455459976
v -0.95008164455459976 0.0015774894299460562 -0.59991835544540029
v -0.95 0 -0.60000000000000009
v 0.45008164455459976 0.0015774894299460562 -0.59991835544540029
v 0.45 0 -0.60000000000000009
v 0.45008164455459976 0.0015774894299460562 -0.95008164455459976
v 0.45 0 -0.95
v -0.95032074646449916 0.003146231229042134 -0.95032074646449916
v -0.95032074646449916 0.003146231229042134 -0.59967925353550089
v 0.45032074646449921 0.003146231229042134 -0.59967925353550089
v 0.45032074646449921 0.003146231229042134 -0.95032074646449916
v -0.95070855809884824 0.004697477766438256 -0.95070855809884824
v -0.95070855809884824 0.004697477766438256 -0.5992914419011518
v 0.45070855809884824 0.004697477766438256 -0.5992914419011518
v 0.45070855809884824 0.004697477766438256 -0.95070855809884824
v -0.9512363318267969 0.0062224814112844433 -0.9512363318267969
v -0.9512363318267969 0.0062224814112844433 -0.59876366817320315
v 0.4512363318267969 0.0062224814112844433 -0.59876366817320315
v 0.4512363318267969 0.0062224814112844433 -0.9512363318267969
v -0.95189532001749522 0.0077124945327307192 -0.95189532001749522
v -0.95189532001749522 0.0077124945327307192 -0.59810467998250483
v 0.45189532001749527 0.0077124945327307192 -0.59810467998250483
v 0.45189532001749527 0.0077124945327307192 -0.95189532001749522
v -0.95267677504009329 0.0091587694999271038 -0.95267677504009329
v -0.95267677504009329 0.0091587694999271038 -0.59732322495990675
v 0.45267677504009329 0.0091587694999271038 -0.59732322495990675
v 0.45267677504009329 0.0091587694999271038 -0.95267677504009329
v -0.95357194926374111 0.010552558682023616 -0.95357194926374111
v -0.95357194926374111 0.010552558682023616 -0.59642805073625893
v 0.45357194926374106 0.010552558682023616 -0.59642805073625893
v 0.45357194926374106 0.010552558682023616 -0.95357194926374111
v -0.95457209505758855 0.011885114448170286 -0.95457209505758855
v -0.95457209505758855 0.011885114448170286 -0.59542790494241149
v 0.45457209505758855 0.011885114448170286 -0.59542790494241149
v 0.45457209505758855 0.011885114448170286 -0.95457209505758855
v -0.95566846479078582 0.013147689167517133 -0.95566846479078582
v -0.95566846479078582 0.013147689167517133 -0.59433153520921422
v 0.45566846479078582 0.013147689167517133 -0.59433153520921422
v 0.45566846479078582 0.013147689167517133 -0.95566846479078582
v -0.9568523108324829 0.014331535209214171 -0.9568523108324829
v -0.9568523108324829 0.014331535209214171 -0.59314768916751714
v 0.45685231083248284 0.014331535209214171 -0.59314768916751714
v 0.45685231083248284 0.014331535209214171 -0.9568523108324829
v -0.95811488555182966 0.015427904942411431 -0.95811488555182966
v -0.95811488555182966 0.015427904942411431 -0.59188511444817038
v 0.45811488555182972 0.015427904942411431 -0.59188511444817038
v 0.45811488555182972 0.015427904942411431 -0.95811488555182966
v -0.95944744131797632 0.016428050736258932 -0.95944744131797632
v -0.95944744131797632 0.016428050736258932 -0.59055255868202372
v 0.45944744131797638 0.016428050736258932 -0.59055255868202372
v 0.45944744131797638 0.016428050736258932 -0.95944744131797632
v -0.96084123050007286 0.017323224959906694 -0.96084123050007286
v -0.96084123050007286 0.017323224959906694 -0.58915876949992718
v 0.46084123050007292 0.017323224959906694 -0.58915876949992718
v 0.46084123050007292 0.017323224959906694 -0.96084123050007286
v -0.96228750546726927 0.018104679982504736 -0.96228750546726927
v -0.96228750546726927 0.018104679982504736 -0.58771249453273078
v 0.46228750546726927 0.018104679982504736 -0.58771249453273078
v 0.46228750546726927 0.018104679982504736 -0.96228750546726927
v -0.96377751858871552 0.018763668173203091 -0.96377751858871552
v -0.96377751858871552 0.018763668173203091 -0.58622248141128452
v 0.46377751858871558 0.018763668173203091 -0.58622248141128452
v 0.46377751858871558 0.018763668173203091 -0.96377751858871552
v -0.96530252223356172 0.019291441901151771 -0.96530252223356172
v -0.96530252223356172 0.019291441901151771 -0.58469747776643832
v 0.46530252223356172 0.019291441901151771 -0.58469747776643832
v 0.46530252223356172 0.019291441901151771 -0.96530252223356172
v -0.96685376877095786 0.019679253535500804 -0.96685376877095786
v -0.96685376877095786 0.019679253535500804 -0.58314623122904219
v 0.46685376877095786 0.019679253535500804 -0.58314623122904219
v 0.46685376877095786 0.019679253535500804 -0.96685376877095786
v -0.96842251057005391 0.0199183554454002 -0.96842251057005391
v -0.96842251057005391 0.0199183554454002 -0.58157748942994614
v 0.46842251057005396 0.0199183554454002 -0.58157748942994614
v 0.46842251057005396 0.0199183554454002 -0.96842251057005391
v -0.97 0.02 -0.97
v -0.97 0.02 -0.58000000000000007
v 0.47 0.02 -0.58000000000000007
v 0.47 0.02 -0.97
v -0.98 0.02 -0.98
v -0.98 0.02 -0.57000000000000006
v 0.48 0.02 -0.57000000000000006
v 0.48 0.02 -0.98
v -0.981577489429946 0.019918355445400208 -0.981577489429946
v -0.981577489429946 0.019918355445400208 -0.568422510570054
v 0.48157748942994605 0.019918355445400208 -0.568422510570054
v 0.48157748942994605 0.019918355445400208 -0.981577489429946
v -0.9831462312290421 0.0196792535355008 -0.9831462312290421
v -0.9831462312290421 0.0196792535355008 -0.56685376877095794
v 0.48314623122904216 0.0196792535355008 -0.56685376877095794
v 0.48314623122904216 0.0196792535355008 -0.9831462312290421
v -0.98469747776643823 0.019291441901151767 -0.98469747776643823
v -0.98469747776643823 0.019291441901151767 -0.56530252223356181
v 0.48469747776643823 0.019291441901151767 -0.56530252223356181
v 0.48469747776643823 0.019291441901151767 -0.98469747776643823
v -0.98622248141128444 0.018763668173203091 -0.98622248141128444
v -0.98622248141128444 0.018763668173203091 -0.56377751858871561
v 0.48622248141128444 0.018763668173203091 -0.56377751858871561
v 0.48622248141128444 0.018763668173203091 -0.98622248141128444
v -0.98771249453273069 0.018104679982504743 -0.98771249453273069
v -0.98771249453273069 0.018104679982504743 -0.56228750546726936
v 0.48771249453273069 0.018104679982504743 -0.56228750546726936
v 0.48771249453273069 0.018104679982504743 -0.98771249453273069
v -0.98915876949992709 0.017323224959906691 -0.98915876949992709
v -0.98915876949992709 0.017323224959906691 -0.560841230500073
v 0.48915876949992709 0.017323224959906691 -0.560841230500073
v 0.48915876949992709 0.017323224959906691 -0.98915876949992709
v -0.99055255868202363 0.016428050736258928 -0.99055255868202363
v -0.99055255868202363 0.016428050736258928 -0.55944744131797641
v 0.49055255868202363 0.016428050736258928 -0.55944744131797641
v 0.49055255868202363 0.016428050736258928 -0.99055255868202363
v -0.99188511444817029 0.015427904942411429 -0.99188511444817029
v -0.99188511444817029 0.015427904942411429 -0.55811488555182975
v 0.49188511444817029 0.015427904942411429 -0.55811488555182975
v 0.49188511444817029 0.015427904942411429 -0.99188511444817029
v -0.99314768916751717 0.014331535209214175 -0.99314768916751717
v -0.99314768916751717 0.014331535209214175 -0.55685231083248288
v 0.49314768916751711 0.014331535209214175 -0.55685231083248288
v 0.49314768916751711 0.014331535209214175 -0.99314768916751717
v -0.99433153520921413 0.013147689167517131 -0.99433153520921413
v -0.99433153520921413 0.013147689167517131 -0.55566846479078591
v 0.49433153520921419 0.013147689167517131 -0.55566846479078591
v 0.49433153520921419 0.013147689167517131 -0.99433153520921413
v -0.9954279049424114 0.011885114448170288 -0.9954279049424114
v -0.9954279049424114 0.011885114448170288 -0.55457209505758864
v 0.49542790494241146 0.011885114448170288 -0.55457209505758864
v 0.49542790494241146 0.011885114448170288 -0.9954279049424114
v -0.996428050736259 0.010552558682023622 -0.996428050736259
v -0.996428050736259 0.010552558682023622 -0.55357194926374109
v 0.49642805073625895 0.010552558682023622 -0.55357194926374109
v 0.49642805073625895 0.010552558682023622 -0.996428050736259
v -0.99732322495990666 0.0091587694999271038 -0.99732322495990666
v -0.99732322495990666 0.0091587694999271038 -0.55267677504009338
v 0.49732322495990672 0.0091587694999271038 -0.55267677504009338
v 0.49732322495990672 0.0091587694999271038 -0.99732322495990666
v -0.99810467998250474 0.00771249453273072 -0.99810467998250474
v -0.99810467998250474 0.00771249453273072 -0.55189532001749531
v 0.49810467998250474 0.00771249453273072 -0.55189532001749531
v 0.49810467998250474 0.00771249453273072 -0.99810467998250474
v -0.99876366817320306 0.0062224814112844433 -0.99876366817320306
v -0.99876366817320306 0.0062224814112844433 -0.551236331826797
v 0.49876366817320311 0.0062224814112844433 -0.551236331826797
v 0.49876366817320311 0.0062224814112844433 -0.99876366817320306
v -0.99929144190115182 0.0046974777664382577 -0.99929144190115182
v -0.99929144190115182 0.0046974777664382577 -0.55070855809884822
v 0.49929144190115177 0.0046974777664382577 -0.55070855809884822
v 0.49929144190115177 0.0046974777664382577 -0.99929144190115182
v -0.9996792535355008 0.003146231229042134 -0.9996792535355008
v -0.9996792535355008 0.003146231229042134 -0.55032074646449924
v 0.4996792535355008 0.003146231229042134 -0.55032074646449924
v 0.4996792535355008 0.003146231229042134 -0.9996792535355008
v -0.9999183554454002 0.001577489429946058 -0.9999183554454002
v -0.9999183554454002 0.001577489429946058 -0.55008164455459985
v 0.4999183554454002 0.001577489429946058 -0.55008164455459985
v 0.4999183554454002 0.001577489429946058 -0.9999183554454002
v -1 0 -1
v -1 0 -0.55
v 0.5 0 -0.55
v 0.5 0 -1
vn 0.00055212130048111951 2.8575594109930814E-05 0
vn 0.0011016946754594729 0.00011231363697918687 0
vn 0 0.00011430237643972328 -0.0022084852019244785
vn 0 0.00044909742470334663 -0.0044052374659537142
vn -0.00055212130048111951 2.8575594109911383E-05 0
vn -0.0011016946754594729 0.00011231363697918687 0
vn 0 0.00011430237643972328 0.0022084852019244785
vn 0 0.00044909742470334663 0.0044052374659537142
vn 0.0010939973682286869 0.00021982190109269887 0
vn 0 0.00087808112255360947 -0.0043699851215454966
vn -0.0010939973682286869 0.00021982190109269887 0
vn 0 0.00087808112255360947 0.0043699851215454966
vn 0.0010810469677462304 0.00032175236765149629 0
vn 0 0.0012831169980641274 -0.0043111096591006556
vn -0.0010810469677462304 0.00032175236765147677 0
vn 0 0.0012831169980641274 0.0043111096591006556
vn 0.0010627109905753493 0.00041830113458814796 0
vn 0 0.001664401149167469 -0.0042284785951824354
vn -0.0010627109905753493 0.00041830113458816748 0
vn 0 0.001664401149167469 0.0042284785951824354
vn 0.0010388312422080054 0.00050961532636618944 0
vn 0 0.0020220807003274032 -0.0041219337352827994
vn -0.0010388312422080054 0.00050961532636618944 0
vn 0 0.0020220807003274032 0.0041219337352827994
vn 0.0010092268779066959 0.000595796154821747 0
vn 0 0.0023562568633799397 -0.003991294234664238
vn -0.0010092268779066959 0.00059579615482170754 0
vn 0 0.0023562568633799397 0.003991294234664238
vn 0.00097369746354627681 0.00067690198000543329 0
vn 0 0.0026669879983754574 -0.0038363596592016179
vn -0.00097369746354627681 0.00067690198000543329 0
vn 0 0.0026669879983754574 0.0038363596592016179
vn 0.00093202603645577511 0.00075295137102436484 0
vn 0 0.0029542926744213069 -0.0036569130462239677
vn -0.00093202603645577511 0.00075295137102438479 0
vn 0 0.0029542926744213069 0.0036569130462239677
vn 0.00088398216626020911 0.00082392616688378674 0
vn 0 0.003218152730522849 -0.0034527239653562893
vn -0.00088398216626020911 0.00082392616688376668 0
vn 0 0.003218152730522849 0.0034527239653562893
vn 0.00082932501572241751 0.0008897745373287688 0
vn 0 0.0034585163364248047 -0.0032235515793614311
vn -0.00082932501572241751 0.000889774537328789 0
vn 0 0.0034585163364248047 0.0032235515793614311
vn 0.00076780640158487018 0.00095041404368638492 0
vn 0 0.0036753010534544806 -0.002969147704981869
vn -0.00076780640158487018 0.00095041404368642569 0
vn 0 0.0036753010534544806 0.002969147704981869
vn 0.00069917385541148664 0.0010057346997072968 0
vn 0 0.0038683968953626543 -0.0026892598737815127
vn -0.00069917385541148664 0.0010057346997072968 0
vn 0 0.0038683968953626543 0.0026892598737815127
vn 0.00062317368442945959 0.0010556020324074861 0
vn 0 0.0040376693891650758 -0.0023836343929875539
vn -0.00062317368442945959 0.0010556020324074653 0
vn 0 0.0040376693891650758 0.0023836343929875539
vn 0.00053955403237107981 0.0010998601429102787 0
vn 0 0.00418296263598507 -0.0020520194063322972
vn -0.00053955403237107981 0.0010998601429102787 0
vn 0 0.00418296263598507 0.0020520194063322972
vn 0.00044806794031554062 0.0011383347672881258 0
vn 0 0.0043041023718952045 -0.0016941679548949273
vn -0.00044806794031554062 0.0011383347672881258 0
vn 0 0.0043041023718952045 0.0016941679548949273
vn 0.00034847640753076821 0.0011708363374043403 0
vn 0 0.004400899028758792 -0.0013098410379433665
vn -0.00034847640753076821 0.0011708363374043191 0
vn 0 0.004400899028758792 0.0013098410379433665
vn 0.00024055145231524015 0.0011971630417549142 0
vn 0 0.0044731507950717085 -0.00089881067377609253
vn -0.00024055145231524015 0.0011971630417549354 0
vn 0 0.0044731507950717085 0.00089881067377609253
vn 0.00012407917283980641 0.0012171038863104653 0
vn 0 0.00452064667680469 -0.0004608629605639625
vn -0.00012407917283980641 0.0012171038863104653 0
vn 0 0.00452064667680469 0.0004608629605639625
vn 3.1841376293921555E-05 0.00061522087767896562 0
vn 0 0.0022715847791223353 -0.0001175681586237104
vn -3.1841376293921555E-05 0.000615220877678944 0
vn 0 0.0022715847791223353 0.0001175681586237104
vn 0 0.0039000000000000024 0
vn 0 0.0041000000000000029 0
vn 0 0.014400000000000012 0
vn 0 0.014600000000000012 0
vn -3.3474267385914691E-05 0.000646770666277887 0
vn -0.000132517998759552 0.0012998810969232283 0
vn 0 0.0023031345677212568 0.00011920104971569624
vn 0 0.0046034238874174526 0.00046930178648371175
vn 3.3474267385914691E-05 0.000646770666277887 0
vn 0.000132517998759552 0.0012998810969232512 0
vn 0 0.0023031345677212568 -0.00011920104971569624
vn 0 0.0046034238874174526 -0.00046930178648371175
vn -0.0002609793830835087 0.0012988276274388335 0
vn 0 0.0045748153807556279 0.000919238604544372
vn 0.0002609793830835087 0.0012988276274388335 0
vn 0 0.0045748153807556279 -0.000919238604544372
vn -0.00038399188230740029 0.0012901638083895272 0
vn 0 0.0045202264997439793 0.001345356512719995
vn 0.00038399188230740029 0.0012901638083895038 0
vn 0 0.0045202264997439793 -0.001345356512719995
vn -0.00050134159460208272 0.001273678645745838 0
vn 0 0.004439446250352916 0.0017474416091814585
vn 0.00050134159460208272 0.001273678645745838 0
vn 0 0.004439446250352916 -0.0017474416091814585
vn -0.00061280053826603931 0.0012491703280038471 0
vn 0 0.0043322728210786381 0.00212526591222726
vn 0.00061280053826603931 0.0012491703280038471 0
vn 0 0.0043322728210786381 -0.00212526591222726
vn -0.00071812971256718762 0.0012164492870268674 0
vn 0 0.0041985166437844574 0.0024785904211252928
vn 0.00071812971256718762 0.0012164492870268674 0
vn 0 0.0041985166437844574 -0.0024785904211252928
vn -0.00081708215858472262 0.0011753412588872609 0
vn 0 0.0040380034545426189 0.0028071681769547465
vn 0.00081708215858472262 0.0011753412588872609 0
vn 0 0.0040380034545426189 -0.0028071681769547465
vn -0.00090940602005093474 0.0011256903447084022 0
vn 0 0.0038505773544766147 0.0031107473234479261
vn 0.00090940602005093474 0.0011256903447083781 0
vn 0 0.0038505773544766147 -0.0031107473234479261
vn -0.00099484760419302123 0.0010673620715063064 0
vn 0 0.0036361038706023427 0.0033890741678320345
vn 0.00099484760419302123 0.0010673620715063305 0
vn 0 0.0036361038706023427 -0.0033890741678320345
vn -0.0010731544425748992 0.0010002464530316404 0
vn 0 0.0033944730166705862 0.0036418962416709813
vn 0.0010731544425748992 0.0010002464530316892 0
vn 0 0.0033944730166705862 -0.0036418962416709813
vn -0.0011440783519390343 0.00092426105061144917 0
vn 0 0.0031256023540085077 0.0038689653617072191
vn 0.0011440783519390343 0.00092426105061142467 0
vn 0 0.0031256023540085077 -0.0038689653617072191
vn -0.00120737849504827 0.00083935403399077574 0
vn 0 0.0028294400523608 0.0040700406907036128
vn 0.00120737849504827 0.00083935403399077574 0
vn 0 0.0028294400523608 -0.0040700406907036128
vn -0.0012628244415276231 0.00074550724217492146 0
vn 0 0.0025059679507329971 0.0042448917982851695
vn 0.0012628244415276231 0.00074550724217492146 0
vn 0 0.0025059679507329971 -0.0042448917982851695
vn -0.0013101992287061224 0.00064273924427092556 0
vn 0 0.0021552046182321391 0.0043933017217809159
vn 0.0013101992287061224 0.00064273924427092556 0
vn 0 0.0021552046182321391 -0.0043933017217809159
vn -0.0013493024224586203 0.0005311084003294795 0
vn 0 0.0017772084149089171 0.0045150700270657059
vn 0.0013493024224586203 0.00053110840032945467 0
vn 0 0.0017772084149089171 -0.0045150700270657059
vn -0.0013799531780476172 0.00041071592218669888 0
vn 0 0.00137208055259933 0.004610015869402042
vn 0.0013799531780476172 0.000410715922186674 0
vn 0 0.00137208055259933 -0.004610015869402042
vn -0.0014019933009650726 0.00028170893430604018 0
vn 0 0.00093996815576683434 0.0046779810542818823
vn 0.0014019933009650726 0.00028170893430606517 0
vn 0 0.00093996815576683434 -0.0046779810542818823
vn -0.0014152903077742339 0.00014428353462017288 0
vn 0 0.0004810673223443326 0.0047188330982684745
vn 0.0014152903077742339 0.00014428353462017288 0
vn 0 0.0004810673223443326 -0.0047188330982684745
vn -0.000709870243475726 3.6740049569911053E-05 0
vn 0 0.00012246683189970353 0.0023662341449190872
vn 0.000709870243475726 3.6740049569911053E-05 0
vn 0 0.00012246683189970353 -0.0023662341449190872
vn 0 -0.022500000000000017 0
vn 0 -0.017500000000000009 0
vn 0 -0.075000000000000067 0
vn 0 -0.070000000000000062 0
vn 0 -0.022499999999999992 0
vn 0 -0.017499999999999988 0
g SelectorFrame
f 1//1 2//2 3//2 4//1
f 4//3 3//4 5//4 6//3
f 6//5 5//6 7//6 8//5
f 8//7 7//8 2//8 1//7
f 2//2 9//9 10//9 3//2
f 3//4 10//10 11//10 5//4
f 5//6 11//11 12//11 7//6
f 7//8 12//12 9//12 2//8
f 9//9 13//13 14//13 10//9
f 10//10 14//14 15//14 11//10
f 11//11 15//15 16//15 12//11
f 12//12 16//16 13//16 9//12
f 13//13 17//17 18//17 14//13
f 14//14 18//18 19//18 15//14
f 15//15 19//19 20//19 16//15
f 16//16 20//20 17//20 13//16
f 17//17 21//21 22//21 18//17
f 18//18 22//22 23//22 19//18
f 19//19 23//23 24//23 20//19
f 20//20 24//24 21//24 17//20
f 21//21 25//25 26//25 22//21
f 22//22 26//26 27//26 23//22
f 23//23 27//27 28//27 24//23
f 24//24 28//28 25//28 21//24
f 25//25 29//29 30//29 26//25
f 26//26 30//30 31//30 27//26
f 27//27 31//31 32//31 28//27
f 28//28 32//32 29//32 25//28
f 29//29 33//33 34//33 30//29
f 30//30 34//34 35//34 31//30
f 31//31 35//35 36//35 32//31
f 32//32 36//36 33//36 29//32
f 33//33 37//37 38//37 34//33
f 34//34 38//38 39//38 35//34
f 35//35 39//39 40//39 36//35
f 36//36 40//40 37//40 33//36
f 37//37 41//41 42//41 38//37
f 38//38 42//42 43//42 39//38
f 39//39 43//43 44//43 40//39
f 40//40 44//44 41//44 37//40
f 41//41 45//45 46//45 42//41
f 42//42 46//46 47//46 43//42
f 43//43 47//47 48//47 44//43
f 44//44 48//48 45//48 41//44
f 45//45 49//49 50//49 46//45
f 46//46 50//50 51//50 47//46
f 47//47 51//51 52//51 48//47
f 48//48 52//52 49//52 45//48
f 49//49 53//53 54//53 50//49
f 50//50 54//54 55//54 51//50
f 51//51 55//55 56//55 52//51
f 52//52 56//56 53//56 49//52
f 53//53 57//57 58//57 54//53
f 54//54 58//58 59//58 55//54
f 55//55 59//59 60//59 56//55
f 56//56 60//60 57//60 53//56
f 57//57 61//61 62//61 58//57
f 58//58 62//62 63//62 59//58
f 59//59 63//63 64//63 60//59
f 60//60 64//64 61//64 57//60
f 61//61 65//65 66//65 62//61
f 62//62 66//66 67//66 63//62
f 63//63 67//67 68//67 64//63
f 64//64 68//68 65//68 61//64
f 65//65 69//69 70//69 66//65
f 66//66 70//70 71//70 67//66
f 67//67 71//71 72//71 68//67
f 68//68 72//72 69//72 65//68
f 69//69 73//73 74//73 70//69
f 70//70 74//74 75//74 71//70
f 71//71 75//75 76//75 72//71
f 72//72 76//76 73//76 69//72
f 73//73 77//77 78//77 74//73
f 74//74 78//78 79//78 75//74
f 75//75 79//79 80//79 76//75
f 76//76 80//80 77//80 73//76
f 77//81 81//82 82//82 78//81
f 78//83 82//84 83//84 79//83
f 79//81 83//82 84//82 80//81
f 80//83 84//84 81//84 77//83
f 81//85 85//86 86//86 82//85
f 82//87 86//88 87//88 83//87
f 83//89 87//90 88//90 84//89
f 84//91 88//92 85//92 81//91
f 85//86 89//93 90//93 86//86
f 86//88 90//94 91//94 87//88
f 87//90 91//95 92//95 88//90
f 88//92 92//96 89//96 85//92
f 89//93 93//97 94//97 90//93
f 90//94 94//98 95//98 91//94
f 91//95 95//99 96//99 92//95
f 92//96 96//100 93//100 89//96
f 93//97 97//101 98//101 94//97
f 94//98 98//102 99//102 95//98
f 95//99 99//103 100//103 96//99
f 96//100 100//104 97//104 93//100
f 97//101 101//105 102//105 98//101
f 98//102 102//106 103//106 99//102
f 99//103 103//107 104//107 100//103
f 100//104 104//108 101//108 97//104
f 101//105 105//109 106//109 102//105
f 102//106 106//110 107//110 103//106
f 103//107 107//111 108//111 104//107
f 104//108 108//112 105//112 101//108
f 105//109 109//113 110//113 106//109
f 106//110 110//114 111//114 107//110
f 107//111 111//115 112//115 108//111
f 108//112 112//116 109//116 105//112
f 109//113 113//117 114//117 110//113
f 110//114 114//118 115//118 111//114
f 111//115 115//119 116//119 112//115
f 112//116 116//120 113//120 109//116
f 113//117 117//121 118//121 114//117
f 114//118 118//122 119//122 115//118
f 115//119 119//123 120//123 116//119
f 116//120 120//124 117//124 113//120
f 117//121 121//125 122//125 118//121
f 118//122 122//126 123//126 119//122
f 119//123 123//127 124//127 120//123
f 120//124 124//128 121//128 117//124
f 121//125 125//129 126//129 122//125
f 122//126 126//130 127//130 123//126
f 123//127 127//131 128//131 124//127
f 124//128 128//132 125//132 121//128
f 125//129 129//133 130//133 126//129
f 126//130 130//134 131//134 127//130
f 127//131 131//135 132//135 128//131
f 128//132 132//136 129//136 125//132
f 129//133 133//137 134//137 130//133
f 130//134 134//138 135//138 131//134
f 131//135 135//139 136//139 132//135
f 132//136 136//140 133//140 129//136
f 133//137 137//141 138//141 134//137
f 134//138 138//142 139//142 135//138
f 135//139 139//143 140//143 136//139
f 136//140 140//144 137//144 133//140
f 137//141 141//145 142//145 138//141
f 138//142 142//146 143//146 139//142
f 139//143 143//147 144//147 140//143
f 140//144 144//148 141//148 137//144
f 141//145 145//149 146//149 142//145
f 142//146 146//150 147//150 143//146
f 143//147 147//151 148//151 144//147
f 144//148 148//152 145//152 141//148
f 145//149 149//153 150//153 146//149
f 146//150 150//154 151//154 147//150
f 147//151 151//155 152//155 148//151
f 148//152 152//156 149//156 145//152
f 149//153 153//157 154//157 150//153
f 150//154 154//158 155//158 151//154
f 151//155 155//159 156//159 152//155
f 152//156 156//160 153//160 149//156
f 153//157 157//161 158//161 154//157
f 154//158 158//162 159//162 155//158
f 155//159 159//163 160//163 156//159
f 156//160 160//164 157//164 153//160
f 157//165 1//166 4//166 158//165
f 158//167 4//168 6//168 159//167
f 159//169 6//170 8//170 160//169
f 160//167 8//168 1//168 157//167
