o Screen
v 0 0 0.25
v -0.95 0 -0.45
v -0.94999999999999973 0 0.45227744249483393
v -0.89957740997791735 0 0.4592456163716685
v -0.8500149661739298 0 0.47084549550420285
v -0.80173718411375927 0 0.48697772383954063
v -0.75515757585328758 0 0.50750412454725935
v -0.71067510813771473 0 0.53224888354074773
v -0.66867078514517064 0 0.56100005537166364
v -0.62950438508450013 0 0.59351137859912284
v -0.59351137859912284 0 0.62950438508450013
v -0.56100005537166364 0 0.66867078514517064
v -0.53224888354074773 0 0.71067510813771473
v -0.50750412454725935 0 0.75515757585328769
v -0.48697772383954063 0 0.80173718411375927
v -0.47084549550420274 0 0.85001496617393
v -0.4592456163716685 0 0.89957740997791746
v -0.45227744249483381 0 0.95
v 0.95 0 0.95
v 0.94999999999999973 0 0.047722557505166074
v 0.89957740997791735 0 0.0407543836283315
v 0.8500149661739298 0 0.029154504495797151
v 0.80173718411375927 0 0.013022276160459367
v 0.75515757585328758 0 -0.00750412454725935
v 0.71067510813771473 0 -0.03224888354074773
v 0.66867078514517064 0 -0.061000055371663642
v 0.62950438508450013 0 -0.093511378599122841
v 0.59351137859912284 0 -0.12950438508450013
v 0.56100005537166364 0 -0.16867078514517064
v 0.53224888354074773 0 -0.21067510813771473
v 0.50750412454725935 0 -0.25515757585328769
v 0.48697772383954063 0 -0.30173718411375922
v 0.47084549550420274 0 -0.35001496617392996
v 0.4592456163716685 0 -0.39957740997791741
v 0.45227744249483381 0 -0.45
vn 0 1 0
vt 0.5 0.5
vt 0.025000000000000022 0.033333333333333326
vt 0.025000000000000133 0.63485162832988928
vt 0.050211295011041324 0.63949707758111229
vt 0.0749925169130351 0.6472303303361352
vt 0.099131407943120364 0.65798514922636042
vt 0.12242121207335621 0.67166941636483957
vt 0.14466244593114264 0.68816592236049845
vt 0.16566460742741468 0.70733337024777576
vt 0.18524780745774994 0.7290075857327486
vt 0.20324431070043858 0.75300292338966679
vt 0.21949997231416818 0.77911385676344713
vt 0.23387555822962613 0.80711673875847645
vt 0.24624793772637033 0.83677171723552524
vt 0.25651113808022968 0.86782478940917285
vt 0.26457725224789863 0.90000997744928668
vt 0.27037719181416575 0.933051606651945
vt 0.27386127875258309 0.96666666666666667
vt 0.975 0.96666666666666667
vt 0.97499999999999987 0.36514837167011072
vt 0.94978870498895862 0.36050292241888765
vt 0.9250074830869649 0.35276966966386475
vt 0.90086859205687964 0.34201485077363958
vt 0.87757878792664379 0.32833058363516043
vt 0.85533755406885736 0.31183407763950149
vt 0.83433539257258538 0.29266662975222424
vt 0.81475219254225006 0.27099241426725146
vt 0.79675568929956142 0.24699707661033324
vt 0.78050002768583182 0.2208861432365529
vt 0.76612444177037387 0.19288326124152352
vt 0.75375206227362967 0.16322828276447487
vt 0.74348886191977037 0.13217521059082718
vt 0.73542274775210137 0.099990022550713362
vt 0.72962280818583425 0.066948393348055066
vt 0.72613872124741685 0.033333333333333326
f 1/1/1 2/2/1 3/3/1
f 1/1/1 3/3/1 4/4/1
f 1/1/1 4/4/1 5/5/1
f 1/1/1 5/5/1 6/6/1
f 1/1/1 6/6/1 7/7/1
f 1/1/1 7/7/1 8/8/1
f 1/1/1 8/8/1 9/9/1
f 1/1/1 9/9/1 10/10/1
f 1/1/1 10/10/1 11/11/1
f 1/1/1 11/11/1 12/12/1
f 1/1/1 12/12/1 13/13/1
f 1/1/1 13/13/1 14/14/1
f 1/1/1 14/14/1 15/15/1
f 1/1/1 15/15/1 16/16/1
f 1/1/1 16/16/1 17/17/1
f 1/1/1 17/17/1 18/18/1
f 1/1/1 18/18/1 19/19/1
f 1/1/1 19/19/1 20/20/1
f 1/1/1 20/20/1 21/21/1
f 1/1/1 21/21/1 22/22/1
f 1/1/1 22/22/1 23/23/1
f 1/1/1 23/23/1 24/24/1
f 1/1/1 24/24/1 25/25/1
f 1/1/1 25/25/1 26/26/1
f 1/1/1 26/26/1 27/27/1
f 1/1/1 27/27/1 28/28/1
f 1/1/1 28/28/1 29/29/1
f 1/1/1 29/29/1 30/30/1
f 1/1/1 30/30/1 31/31/1
f 1/1/1 31/31/1 32/32/1
f 1/1/1 32/32/1 33/33/1
f 1/1/1 33/33/1 34/34/1
f 1/1/1 34/34/1 35/35/1
f 1/1/1 35/35/1 2/2/1
