o SelectorCylinder
v 1.3 0.046345837867301093 0.018763350243968708
v 0.48000000000000004 0.046345837867301093 0.018763350243968708
v 0.48000000000000004 0.04356593520616947 0.024535877600196893
v 1.3 0.04356593520616947 0.024535877600196893
v 0.48000000000000004 0.014226379331551624 0.04793339265183303
v 1.3 0.014226379331551624 0.04793339265183303
v 0.48000000000000004 0.0079799947516689656 0.049359089170722507
v 1.3 0.0079799947516689656 0.049359089170722507
v 0.48000000000000004 -0.028605833006108489 0.041008612729847793
v 1.3 -0.028605833006108489 0.041008612729847793
v 0.48000000000000004 -0.03361504451306583 0.03701389985376579
v 1.3 -0.03361504451306583 0.03701389985376579
v 0.48000000000000004 -0.049897269637516818 0.0032035109990356616
v 1.3 -0.049897269637516818 0.0032035109990356616
v 0.48000000000000004 -0.049897269637516818 -0.00320351099903565
v 1.3 -0.049897269637516818 -0.00320351099903565
v 0.48000000000000004 -0.033615044513065837 -0.037013899853765783
v 1.3 -0.033615044513065837 -0.037013899853765783
v 0.48000000000000004 -0.0286058330061085 -0.041008612729847786
v 1.3 -0.0286058330061085 -0.041008612729847786
v 0.48000000000000004 0.0079799947516689656 -0.049359089170722514
v 1.3 0.0079799947516689656 -0.049359089170722514
v 0.48000000000000004 0.014226379331551601 -0.047933392651833044
v 1.3 0.014226379331551601 -0.047933392651833044
v 0.48000000000000004 0.04356593520616945 -0.024535877600196931
v 1.3 0.04356593520616945 -0.024535877600196931
v 0.48000000000000004 0.046345837867301086 -0.018763350243968732
v 1.3 0.046345837867301086 -0.018763350243968732
v 0.46 0.046345837867301093 0.018763350243968708
v 0.46 0.04356593520616947 0.024535877600196893
v 0.46 0.014226379331551624 0.04793339265183303
v 0.46 0.0079799947516689656 0.049359089170722507
v 0.46 -0.028605833006108489 0.041008612729847793
v 0.46 -0.03361504451306583 0.03701389985376579
v 0.46 -0.049897269637516818 0.0032035109990356616
v 0.46 -0.049897269637516818 -0.00320351099903565
v 0.46 -0.033615044513065837 -0.037013899853765783
v 0.46 -0.0286058330061085 -0.041008612729847786
v 0.46 0.0079799947516689656 -0.049359089170722514
v 0.46 0.014226379331551601 -0.047933392651833044
v 0.46 0.04356593520616945 -0.024535877600196931
v 0.46 0.046345837867301086 -0.018763350243968732
v 0.38000000000000006 0.2780750272038065 0.11258010146381224
v 0.38000000000000006 0.26139561123701682 0.14721526560118134
v 0.38000000000000006 0.085358275989309729 0.28760035591099814
v 0.38000000000000006 0.0478799685100138 0.29615453502433503
v 0.38000000000000006 -0.17163499803665092 0.2460516763790867
v 0.38000000000000006 -0.20169026707839496 0.2220833991225947
v 0.38000000000000006 -0.29938361782510087 0.019221065994213967
v 0.38000000000000006 -0.29938361782510087 -0.019221065994213898
v 0.38000000000000006 -0.201690267078395 -0.22208339912259467
v 0.38000000000000006 -0.171634998036651 -0.24605167637908668
v 0.38000000000000006 0.047879968510013783 -0.29615453502433503
v 0.38000000000000006 0.0853582759893096 -0.28760035591099825
v 0.38000000000000006 0.26139561123701666 -0.14721526560118159
v 0.38000000000000006 0.2780750272038065 -0.11258010146381237
v 0.36000000000000004 0.2780750272038065 0.11258010146381224
v 0.36000000000000004 0.26139561123701682 0.14721526560118134
v 0.36000000000000004 0.085358275989309729 0.28760035591099814
v 0.36000000000000004 0.0478799685100138 0.29615453502433503
v 0.36000000000000004 -0.17163499803665092 0.2460516763790867
v 0.36000000000000004 -0.20169026707839496 0.2220833991225947
v 0.36000000000000004 -0.29938361782510087 0.019221065994213967
v 0.36000000000000004 -0.29938361782510087 -0.019221065994213898
v 0.36000000000000004 -0.201690267078395 -0.22208339912259467
v 0.36000000000000004 -0.171634998036651 -0.24605167637908668
v 0.36000000000000004 0.047879968510013783 -0.29615453502433503
v 0.36000000000000004 0.0853582759893096 -0.28760035591099825
v 0.36000000000000004 0.26139561123701666 -0.14721526560118159
v 0.36000000000000004 0.2780750272038065 -0.11258010146381237
v -0.8600000000000001 0.2780750272038065 0.11258010146381224
v -0.8600000000000001 0.26139561123701682 0.14721526560118134
v -0.8600000000000001 0.085358275989309729 0.28760035591099814
v -0.8600000000000001 0.0478799685100138 0.29615453502433503
v -0.8600000000000001 -0.17163499803665092 0.2460516763790867
v -0.8600000000000001 -0.20169026707839496 0.2220833991225947
v -0.8600000000000001 -0.29938361782510087 0.019221065994213967
v -0.8600000000000001 -0.29938361782510087 -0.019221065994213898
v -0.8600000000000001 -0.201690267078395 -0.22208339912259467
v -0.8600000000000001 -0.171634998036651 -0.24605167637908668
v -0.8600000000000001 0.047879968510013783 -0.29615453502433503
v -0.8600000000000001 0.0853582759893096 -0.28760035591099825
v -0.8600000000000001 0.26139561123701666 -0.14721526560118159
v -0.8600000000000001 0.2780750272038065 -0.11258010146381237
v -0.88000000000000012 0.2780750272038065 0.11258010146381224
v -0.88000000000000012 0.26139561123701682 0.14721526560118134
v -0.88000000000000012 0.085358275989309729 0.28760035591099814
v -0.88000000000000012 0.0478799685100138 0.29615453502433503
v -0.88000000000000012 -0.17163499803665092 0.2460516763790867
v -0.88000000000000012 -0.20169026707839496 0.2220833991225947
v -0.88000000000000012 -0.29938361782510087 0.019221065994213967
v -0.88000000000000012 -0.29938361782510087 -0.019221065994213898
v -0.88000000000000012 -0.201690267078395 -0.22208339912259467
v -0.88000000000000012 -0.171634998036651 -0.24605167637908668
v -0.88000000000000012 0.047879968510013783 -0.29615453502433503
v -0.88000000000000012 0.0853582759893096 -0.28760035591099825
v -0.88000000000000012 0.26139561123701666 -0.14721526560118159
v -0.88000000000000012 0.2780750272038065 -0.11258010146381237
v -0.96 0.046345837867301093 0.018763350243968708
v -0.96 0.04356593520616947 0.024535877600196893
v -0.96 0.014226379331551624 0.04793339265183303
v -0.96 0.0079799947516689656 0.049359089170722507
v -0.96 -0.028605833006108489 0.041008612729847793
v -0.96 -0.03361504451306583 0.03701389985376579
v -0.96 -0.049897269637516818 0.0032035109990356616
v -0.96 -0.049897269637516818 -0.00320351099903565
v -0.96 -0.033615044513065837 -0.037013899853765783
v -0.96 -0.0286058330061085 -0.041008612729847786
v -0.96 0.0079799947516689656 -0.049359089170722514
v -0.96 0.014226379331551601 -0.047933392651833044
v -0.96 0.04356593520616945 -0.024535877600196931
v -0.96 0.046345837867301086 -0.018763350243968732
v -0.98 0.046345837867301093 0.018763350243968708
v -0.98 0.04356593520616947 0.024535877600196893
v -0.98 0.014226379331551624 0.04793339265183303
v -0.98 0.0079799947516689656 0.049359089170722507
v -0.98 -0.028605833006108489 0.041008612729847793
v -0.98 -0.03361504451306583 0.03701389985376579
v -0.98 -0.049897269637516818 0.0032035109990356616
v -0.98 -0.049897269637516818 -0.00320351099903565
v -0.98 -0.033615044513065837 -0.037013899853765783
v -0.98 -0.0286058330061085 -0.041008612729847786
v -0.98 0.0079799947516689656 -0.049359089170722514
v -0.98 0.014226379331551601 -0.047933392651833044
v -0.98 0.04356593520616945 -0.024535877600196931
v -0.98 0.046345837867301086 -0.018763350243968732
v -1.3 0.046345837867301093 0.018763350243968708
v -1.3 0.04356593520616947 0.024535877600196893
v -1.3 0.014226379331551624 0.04793339265183303
v -1.3 0.0079799947516689656 0.049359089170722507
v -1.3 -0.028605833006108489 0.041008612729847793
v -1.3 -0.03361504451306583 0.03701389985376579
v -1.3 -0.049897269637516818 0.0032035109990356616
v -1.3 -0.049897269637516818 -0.00320351099903565
v -1.3 -0.033615044513065837 -0.037013899853765783
v -1.3 -0.0286058330061085 -0.041008612729847786
v -1.3 0.0079799947516689656 -0.049359089170722514
v -1.3 0.014226379331551601 -0.047933392651833044
v -1.3 0.04356593520616945 -0.024535877600196931
v -1.3 0.046345837867301086 -0.018763350243968732
vn 0 0.0307718944001087 -5.6898930012039277E-18
vn 0 0.019185962342341635 0.024058435817186637
vn 0 -0.0068473906815172663 0.030000378761377514
vn 0 -0.027724518860878709 0.013351424602049812
vn 0 -0.027724518860878709 -0.013351424602049806
vn 0 -0.0068473906815172776 -0.030000378761377525
vn 0 0.019185962342341614 -0.024058435817186637
vn 0.008696031882543585 0.0030021360390349934 -5.55111512312578E-19
vn 0.00869603188254358 0.0018718012041308901 0.0023471644699694268
vn 0.0086960318825435815 -0.00066803811526997675 0.0029268662206221947
vn 0.00869603188254358 -0.00066803811526997675 0.0029268662206221947
vn 0.00869603188254358 -0.0027048311083784091 0.0013025780099560785
vn 0.008696031882543578 -0.0027048311083784091 -0.0013025780099560778
vn 0.00869603188254358 -0.0027048311083784091 -0.0013025780099560778
vn 0.008696031882543585 -0.000668038115269978 -0.002926866220622196
vn 0.008696031882543578 0.0018718012041308882 -0.0023471644699694268
vn 0.052176191295261506 0.018012816234209961 0
vn 0.052176191295261479 0.011230807224785339 0.014082986819816561
vn 0.052176191295261486 -0.0040082286916198638 0.017561197323733169
vn 0.052176191295261465 -0.016228986650270449 0.0078154680597364683
vn 0.052176191295261472 -0.016228986650270449 0.0078154680597364683
vn 0.052176191295261479 -0.016228986650270456 -0.0078154680597364665
vn 0.052176191295261465 -0.016228986650270456 -0.0078154680597364665
vn 0.0521761912952615 -0.0040082286916198664 -0.017561197323733173
vn 0.052176191295261451 0.011230807224785328 -0.014082986819816555
vn 0.052176191295261458 0.011230807224785328 -0.014082986819816555
vn 0 0.0045032040585524964 0
vn 0 0.0028077018061963385 0.0035207467049541449
vn 0 -0.0010020571729049675 0.0043902993309332984
vn 0 -0.0040572466625676184 0.0019538670149341197
vn 0 -0.0040572466625676193 -0.0019538670149341192
vn 0 -0.0010020571729049679 -0.0043902993309332993
vn 0 0.0028077018061963359 -0.003520746704954144
vn 0 0.27469544757170206 0
vn 0 0.17126981017797652 0.21476554900220268
vn 0 -0.06112548754720297 0.267808259186931
vn 0 -0.24749204641662453 0.11918588791098123
vn 0 -0.24749204641662459 -0.11918588791098118
vn 0 -0.061125487547203004 -0.26780825918693107
vn 0 0.17126981017797635 -0.21476554900220263
vn -0.052176191295261506 0.018012816234209937 0
vn -0.052176191295261479 0.011230807224785323 0.014082986819816542
vn -0.052176191295261486 -0.0040082286916198586 0.017561197323733145
vn -0.052176191295261465 -0.016228986650270429 0.0078154680597364579
vn -0.052176191295261472 -0.016228986650270429 0.0078154680597364579
vn -0.052176191295261479 -0.016228986650270432 -0.0078154680597364561
vn -0.052176191295261465 -0.016228986650270432 -0.0078154680597364561
vn -0.0521761912952615 -0.0040082286916198612 -0.017561197323733149
vn -0.052176191295261451 0.011230807224785313 -0.014082986819816536
vn -0.052176191295261458 0.011230807224785313 -0.014082986819816536
vn -0.008696031882543585 0.0030021360390349891 -5.5511151231257722E-19
vn -0.00869603188254358 0.0018718012041308875 0.0023471644699694233
vn -0.0086960318825435815 -0.00066803811526997589 0.0029268662206221908
vn -0.00869603188254358 -0.00066803811526997589 0.0029268662206221908
vn -0.00869603188254358 -0.0027048311083784052 0.0013025780099560765
vn -0.008696031882543578 -0.0027048311083784052 -0.0013025780099560761
vn -0.00869603188254358 -0.0027048311083784052 -0.0013025780099560761
vn -0.008696031882543585 -0.000668038115269977 -0.0029268662206221917
vn -0.008696031882543578 0.0018718012041308856 -0.0023471644699694233
vn 0 0.012008544156139982 -2.2204460492503135E-18
vn 0 0.0074872048165235657 0.0093886578798777123
vn 0 -0.0026721524610799092 0.011707464882488788
vn 0 -0.010819324433513643 0.0052103120398243174
vn 0 -0.010819324433513643 -0.0052103120398243148
vn 0 -0.0026721524610799135 -0.011707464882488791
vn 0 0.0074872048165235579 -0.0093886578798777123
g SelectorCylinder
f 1//1 2//1 3//2 4//2
f 4//2 3//2 5//2 6//2
f 6//2 5//2 7//3 8//3
f 8//3 7//3 9//3 10//3
f 10//3 9//3 11//4 12//4
f 12//4 11//4 13//4 14//4
f 14//4 13//4 15//5 16//5
f 16//5 15//5 17//5 18//5
f 18//5 17//5 19//6 20//6
f 20//6 19//6 21//6 22//6
f 22//6 21//6 23//7 24//7
f 24//7 23//7 25//7 26//7
f 26//7 25//7 27//1 28//1
f 28//1 27//1 2//1 1//1
f 2//1 29//8 30//9 3//2
f 3//2 30//9 31//9 5//2
f 5//2 31//9 32//10 7//3
f 7//3 32//10 33//11 9//3
f 9//3 33//11 34//12 11//4
f 11//4 34//12 35//12 13//4
f 13//4 35//12 36//13 15//5
f 15//5 36//13 37//14 17//5
f 17//5 37//14 38//15 19//6
f 19//6 38//15 39//15 21//6
f 21//6 39//15 40//16 23//7
f 23//7 40//16 41//16 25//7
f 25//7 41//16 42//8 27//1
f 27//1 42//8 29//8 2//1
f 29//8 43//17 44//18 30//9
f 30//9 44//18 45//18 31//9
f 31//9 45//18 46//19 32//10
f 32//10 46//19 47//19 33//11
f 33//11 47//19 48//20 34//12
f 34//12 48//20 49//21 35//12
f 35//12 49//21 50//22 36//13
f 36//13 50//22 51//23 37//14
f 37//14 51//23 52//24 38//15
f 38//15 52//24 53//24 39//15
f 39//15 53//24 54//25 40//16
f 40//16 54//25 55//26 41//16
f 41//16 55//26 56//17 42//8
f 42//8 56//17 43//17 29//8
f 43//17 57//27 58//28 44//18
f 44//18 58//28 59//28 45//18
f 45//18 59//28 60//29 46//19
f 46//19 60//29 61//29 47//19
f 47//19 61//29 62//30 48//20
f 48//20 62//30 63//30 49//21
f 49//21 63//30 64//31 50//22
f 50//22 64//31 65//31 51//23
f 51//23 65//31 66//32 52//24
f 52//24 66//32 67//32 53//24
f 53//24 67//32 68//33 54//25
f 54//25 68//33 69//33 55//26
f 55//26 69//33 70//27 56//17
f 56//17 70//27 57//27 43//17
f 57//34 71//34 72//35 58//35
f 58//35 72//35 73//35 59//35
f 59//35 73//35 74//36 60//36
f 60//36 74//36 75//36 61//36
f 61//36 75//36 76//37 62//37
f 62//37 76//37 77//37 63//37
f 63//37 77//37 78//38 64//38
f 64//38 78//38 79//38 65//38
f 65//38 79//38 80//39 66//39
f 66//39 80//39 81//39 67//39
f 67//39 81//39 82//40 68//40
f 68//40 82//40 83//40 69//40
f 69//40 83//40 84//34 70//34
f 70//34 84//34 71//34 57//34
f 71//27 85//41 86//42 72//28
f 72//28 86//42 87//42 73//28
f 73//28 87//42 88//43 74//29
f 74//29 88//43 89//43 75//29
f 75//29 89//43 90//44 76//30
f 76//30 90//44 91//45 77//30
f 77//30 91//45 92//46 78//31
f 78//31 92//46 93//47 79//31
f 79//31 93//47 94//48 80//32
f 80//32 94//48 95//48 81//32
f 81//32 95//48 96//49 82//33
f 82//33 96//49 97//50 83//33
f 83//33 97//50 98//41 84//27
f 84//27 98//41 85//41 71//27
f 85//41 99//51 100//52 86//42
f 86//42 100//52 101//52 87//42
f 87//42 101//52 102//53 88//43
f 88//43 102//53 103//54 89//43
f 89//43 103//54 104//55 90//44
f 90//44 104//55 105//55 91//45
f 91//45 105//55 106//56 92//46
f 92//46 106//56 107//57 93//47
f 93//47 107//57 108//58 94//48
f 94//48 108//58 109//58 95//48
f 95//48 109//58 110//59 96//49
f 96//49 110//59 111//59 97//50
f 97//50 111//59 112//51 98//41
f 98//41 112//51 99//51 85//41
f 99//51 113//60 114//61 100//52
f 100//52 114//61 115//61 101//52
f 101//52 115//61 116//62 102//53
f 102//53 116//62 117//62 103//54
f 103//54 117//62 118//63 104//55
f 104//55 118//63 119//63 105//55
f 105//55 119//63 120//64 106//56
f 106//56 120//64 121//64 107//57
f 107//57 121//64 122//65 108//58
f 108//58 122//65 123//65 109//58
f 109//58 123//65 124//66 110//59
f 110//59 124//66 125//66 111//59
f 111//59 125//66 126//60 112//51
f 112//51 126//60 113//60 99//51
f 113//60 127//60 128//61 114//61
f 114//61 128//61 129//61 115//61
f 115//61 129//61 130//62 116//62
f 116//62 130//62 131//62 117//62
f 117//62 131//62 132//63 118//63
f 118//63 132//63 133//63 119//63
f 119//63 133//63 134//64 120//64
f 120//64 134//64 135//64 121//64
f 121//64 135//64 136//65 122//65
f 122//65 136//65 137//65 123//65
f 123//65 137//65 138//66 124//66
f 124//66 138//66 139//66 125//66
f 125//66 139//66 140//60 126//60
f 126//60 140//60 127//60 113//60
