o SelectorCylinder
v 1.3 0.046345837867301093 0.018763350243968708
v 0.48000000000000004 0.046345837867301093 0.018763350243968708
v 0.48000000000000004 0.04356593520616947 0.024535877600196893
v 1.3 0.04356593520616947 0.024535877600196893
v 0.48000000000000004 0.014226379331551624 0.04793339265183303
v 1.3 0.014226379331551624 0.04793339265183303
v 0.48000000000000004 0.0079799947516689656 0.049359089170722507
v 1.3 0.0079799947516689656 0.049359089170722507
v 0.48000000000000004 -0.028605833006108489 0.041008612729847793
v 1.3 -0.028605833006108489 0.041008612729847793
v 0.48000000000000004 -0.03361504451306583 0.03701389985376579
v 1.3 -0.03361504451306583 0.03701389985376579
v 0.48000000000000004 -0.049897269637516818 0.0032035109990356616
v 1.3 -0.049897269637516818 0.0032035109990356616
v 0.48000000000000004 -0.049897269637516818 -0.00320351099903565
v 1.3 -0.049897269637516818 -0.00320351099903565
v 0.48000000000000004 -0.033615044513065837 -0.037013899853765783
v 1.3 -0.033615044513065837 -0.037013899853765783
v 0.48000000000000004 -0.0286058330061085 -0.041008612729847786
v 1.3 -0.0286058330061085 -0.041008612729847786
v 0.48000000000000004 0.0079799947516689656 -0.049359089170722514
v 1.3 0.0079799947516689656 -0.049359089170722514
v 0.48000000000000004 0.014226379331551601 -0.047933392651833044
v 1.3 0.014226379331551601 -0.047933392651833044
v 0.48000000000000004 0.04356593520616945 -0.024535877600196931
v 1.3 0.04356593520616945 -0.024535877600196931
v 0.48000000000000004 0.046345837867301086 -0.018763350243968732
v 1.3 0.046345837867301086 -0.018763350243968732
v 0.46 0.046345837867301093 0.018763350243968708
v 0.46 0.04356593520616947 0.024535877600196893
v 0.46 0.014226379331551624 0.04793339265183303
v 0.46 0.0079799947516689656 0.049359089170722507
v 0.46 -0.028605833006108489 0.041008612729847793
v 0.46 -0.03361504451306583 0.03701389985376579
v 0.46 -0.049897269637516818 0.0032035109990356616
v 0.46 -0.049897269637516818 -0.00320351099903565
v 0.46 -0.033615044513065837 -0.037013899853765783
v 0.46 -0.0286058330061085 -0.041008612729847786
v 0.46 0.0079799947516689656 -0.049359089170722514
v 0.46 0.014226379331551601 -0.047933392651833044
v 0.46 0.04356593520616945 -0.024535877600196931
v 0.46 0.046345837867301086 -0.018763350243968732
v 0.38000000000000006 0.2780750272038065 0.11258010146381224
v 0.38000000000000006 0.26139561123701682 0.14721526560118134
v 0.38000000000000006 0.085358275989309729 0.28760035591099814
v 0.38000000000000006 0.0478799685100138 0.29615453502433503
v 0.38000000000000006 -0.17163499803665092 0.2460516763790867
v 0.38000000000000006 -0.20169026707839496 0.2220833991225947
v 0.38000000000000006 -0.29938361782510087 0.019221065994213967
v 0.38000000000000006 -0.29938361782510087 -0.019221065994213898
v 0.38000000000000006 -0.201690267078395 -0.22208339912259467
v 0.38000000000000006 -0.171634998036651 -0.24605167637908668
v 0.38000000000000006 0.047879968510013783 -0.29615453502433503
v 0.38000000000000006 0.0853582759893096 -0.28760035591099825
v 0.38000000000000006 0.26139561123701666 -0.14721526560118159
v 0.38000000000000006 0.2780750272038065 -0.11258010146381237
v 0.36000000000000004 0.2780750272038065 0.11258010146381224
v 0.36000000000000004 0.26139561123701682 0.14721526560118134
v 0.36000000000000004 0.085358275989309729 0.28760035591099814
v 0.36000000000000004 0.0478799685100138 0.29615453502433503
v 0.36000000000000004 -0.17163499803665092 0.2460516763790867
v 0.36000000000000004 -0.20169026707839496 0.2220833991225947
v 0.36000000000000004 -0.29938361782510087 0.019221065994213967
v 0.36000000000000004 -0.29938361782510087 -0.019221065994213898
v 0.36000000000000004 -0.201690267078395 -0.22208339912259467
v 0.36000000000000004 -0.171634998036651 -0.24605167637908668
v 0.36000000000000004 0.047879968510013783 -0.29615453502433503
v 0.36000000000000004 0.0853582759893096 -0.28760035591099825
v 0.36000000000000004 0.26139561123701666 -0.14721526560118159
v 0.36000000000000004 0.2780750272038065 -0.11258010146381237
v -0.8600000000000001 0.2780750272038065 0.11258010146381224
v -0.8600000000000001 0.26139561123701682 0.14721526560118134
v -0.8600000000000001 0.085358275989309729 0.28760035591099814
v -0.8600000000000001 0.0478799685100138 0.29615453502433503
v -0.8600000000000001 -0.17163499803665092 0.2460516763790867
v -0.8600000000000001 -0.20169026707839496 0.2220833991225947
v -0.8600000000000001 -0.29938361782510087 0.019221065994213967
v -0.8600000000000001 -0.29938361782510087 -0.019221065994213898
v -0.8600000000000001 -0.201690267078395 -0.22208339912259467
v -0.8600000000000001 -0.171634998036651 -0.24605167637908668
v -0.8600000000000001 0.047879968510013783 -0.29615453502433503
v -0.8600000000000001 0.0853582759893096 -0.28760035591099825
v -0.8600000000000001 0.26139561123701666 -0.14721526560118159
v -0.8600000000000001 0.2780750272038065 -0.11258010146381237
v -0.88000000000000012 0.2780750272038065 0.11258010146381224
v -0.88000000000000012 0.26139561123701682 0.14721526560118134
v -0.88000000000000012 0.085358275989309729 0.28760035591099814
v -0.88000000000000012 0.0478799685100138 0.29615453502433503
v -0.88000000000000012 -0.17163499803665092 0.2460516763790867
v -0.88000000000000012 -0.20169026707839496 0.2220833991225947
v -0.88000000000000012 -0.29938361782510087 0.019221065994213967
v -0.88000000000000012 -0.29938361782510087 -0.019221065994213898
v -0.88000000000000012 -0.201690267078395 -0.22208339912259467
v -0.88000000000000012 -0.171634998036651 -0.24605167637908668
v -0.88000000000000012 0.047879968510013783 -0.29615453502433503
v -0.88000000000000012 0.0853582759893096 -0.28760035591099825
v -0.88000000000000012 0.26139561123701666 -0.14721526560118159
v -0.88000000000000012 0.2780750272038065 -0.11258010146381237
v -0.96 0.046345837867301093 0.018763350243968708
v -0.96 0.04356593520616947 0.024535877600196893
v -0.96 0.014226379331551624 0.04793339265183303
v -0.96 0.0079799947516689656 0.049359089170722507
v -0.96 -0.028605833006108489 0.041008612729847793
v -0.96 -0.03361504451306583 0.03701389985376579
v -0.96 -0.049897269637516818 0.0032035109990356616
v -0.96 -0.049897269637516818 -0.00320351099903565
v -0.96 -0.033615044513065837 -0.037013899853765783
v -0.96 -0.0286058330061085 -0.041008612729847786
v -0.96 0.0079799947516689656 -0.049359089170722514
v -0.96 0.014226379331551601 -0.047933392651833044
v -0.96 0.04356593520616945 -0.024535877600196931
v -0.96 0.046345837867301086 -0.018763350243968732
v -0.98 0.046345837867301093 0.018763350243968708
v -0.98 0.04356593520616947 0.024535877600196893
v -0.98 0.014226379331551624 0.04793339265183303
v -0.98 0.0079799947516689656 0.049359089170722507
v -0.98 -0.028605833006108489 0.041008612729847793
v -0.98 -0.03361504451306583 0.03701389985376579
v -0.98 -0.049897269637516818 0.0032035109990356616
v -0.98 -0.049897269637516818 -0.00320351099903565
v -0.98 -0.033615044513065837 -0.037013899853765783
v -0.98 -0.0286058330061085 -0.041008612729847786
v -0.98 0.0079799947516689656 -0.049359089170722514
v -0.98 0.014226379331551601 -0.047933392651833044
v -0.98 0.04356593520616945 -0.024535877600196931
v -0.98 0.046345837867301086 -0.018763350243968732
v -1.3 0.046345837867301093 0.018763350243968708
v -1.3 0.04356593520616947 0.024535877600196893
v -1.3 0.014226379331551624 0.04793339265183303
v -1.3 0.0079799947516689656 0.049359089170722507
v -1.3 -0.028605833006108489 0.041008612729847793
v -1.3 -0.03361504451306583 0.03701389985376579
v -1.3 -0.049897269637516818 0.0032035109990356616
v -1.3 -0.049897269637516818 -0.00320351099903565
v -1.3 -0.033615044513065837 -0.037013899853765783
v -1.3 -0.0286058330061085 -0.041008612729847786
v -1.3 0.0079799947516689656 -0.049359089170722514
v -1.3 0.014226379331551601 -0.047933392651833044
v -1.3 0.04356593520616945 -0.024535877600196931
v -1.3 0.046345837867301086 -0.018763350243968732
vn 0 1 -1.8490551563779668E-16
vn 0 0.62348980185873348 0.7818314824680298
vn 0 -0.22252093395631439 0.97492791218182362
vn 0 -0.90096886790241892 0.43388373911755834
vn 0 -0.900968867902419 -0.43388373911755823
vn 0 -0.22252093395631467 -0.97492791218182362
vn 0 0.62348980185873315 -0.78183148246803014
vn 0.94525552667345591 0.32633110377848967 -6.0340421012812978E-17
vn 0.94525552667345591 0.20346411523519234 0.25513593064256507
vn 0.94525552667345614 -0.072615501991784487 0.318149301686753
vn 0.94525552667345591 -0.072615501991784487 0.318149301686753
vn 0.94525552667345591 -0.29401416513265266 0.14158975949777108
vn 0.94525552667345591 -0.29401416513265272 -0.14158975949777106
vn 0.94525552667345591 -0.29401416513265266 -0.14158975949777103
vn 0.94525552667345591 -0.07261550199178457 -0.318149301686753
vn 0.94525552667345591 0.20346411523519217 -0.25513593064256512
vn 0.945255526673456 0.32633110377848973 0
vn 0.94525552667345591 0.20346411523519231 0.25513593064256512
vn 0.94525552667345591 -0.072615501991784542 0.318149301686753
vn 0.94525552667345591 -0.29401416513265272 -0.14158975949777103
vn 0.94525552667345591 -0.29401416513265277 -0.14158975949777106
vn 0.945255526673456 -0.07261550199178457 -0.318149301686753
vn 0.94525552667345591 0.20346411523519223 -0.25513593064256512
vn 0.94525552667345591 0.2034641152351922 -0.25513593064256512
vn 0 1 0
vn 0 0.62348980185873359 0.78183148246803
vn 0 -0.22252093395631453 0.97492791218182351
vn 0 -0.900968867902419 0.43388373911755834
vn 0 -0.900968867902419 -0.43388373911755812
vn 0 -0.22252093395631459 -0.97492791218182351
vn 0 0.62348980185873348 0.78183148246802991
vn 0 -0.22252093395631456 0.97492791218182362
vn 0 -0.90096886790241915 -0.43388373911755818
vn 0 -0.22252093395631464 -0.97492791218182362
vn 0 0.62348980185873315 -0.78183148246803
vn -0.94525552667345614 0.32633110377848934 0
vn -0.945255526673456 0.20346411523519206 0.25513593064256479
vn -0.94525552667345614 -0.072615501991784459 0.31814930168675259
vn -0.945255526673456 -0.29401416513265233 0.14158975949777092
vn -0.945255526673456 -0.29401416513265227 0.14158975949777089
vn -0.945255526673456 -0.29401416513265233 -0.14158975949777086
vn -0.945255526673456 -0.29401416513265238 -0.14158975949777089
vn -0.94525552667345614 -0.072615501991784487 -0.31814930168675259
vn -0.945255526673456 0.20346411523519198 -0.25513593064256485
vn -0.94525552667345614 0.20346411523519198 -0.25513593064256485
vn -0.94525552667345614 0.32633110377848928 -6.03404210128129E-17
vn -0.945255526673456 0.20346411523519209 0.25513593064256473
vn -0.94525552667345614 -0.07261550199178439 0.31814930168675259
vn -0.945255526673456 -0.0726155019917844 0.31814930168675265
vn -0.94525552667345614 -0.072615501991784487 -0.31814930168675254
vn -0.945255526673456 0.20346411523519192 -0.25513593064256479
vn 0 0.62348980185873348 0.78183148246802969
vn 0 -0.22252093395631437 0.97492791218182351
vn 0 -0.900968867902419 0.4338837391175584
vn 0 -0.900968867902419 -0.43388373911755818
vn 0 -0.22252093395631467 -0.97492791218182351
g SelectorCylinder
f 1//1 2//1 3//2 4//2
f 4//2 3//2 5//2 6//2
f 6//2 5//2 7//3 8//3
f 8//3 7//3 9//3 10//3
f 10//3 9//3 11//4 12//4
f 12//4 11//4 13//4 14//4
f 14//4 13//4 15//5 16//5
f 16//5 15//5 17//5 18//5
f 18//5 17//5 19//6 20//6
f 20//6 19//6 21//6 22//6
f 22//6 21//6 23//7 24//7
f 24//7 23//7 25//7 26//7
f 26//7 25//7 27//1 28//1
f 28//1 27//1 2//1 1//1
f 2//1 29//8 30//9 3//2
f 3//2 30//9 31//9 5//2
f 5//2 31//9 32//10 7//3
f 7//3 32//10 33//11 9//3
f 9//3 33//11 34//12 11//4
f 11//4 34//12 35//12 13//4
f 13//4 35//12 36//13 15//5
f 15//5 36//13 37//14 17//5
f 17//5 37//14 38//15 19//6
f 19//6 38//15 39//15 21//6
f 21//6 39//15 40//16 23//7
f 23//7 40//16 41//16 25//7
f 25//7 41//16 42//8 27//1
f 27//1 42//8 29//8 2//1
f 29//8 43//17 44//18 30//9
f 30//9 44//18 45//18 31//9
f 31//9 45//18 46//19 32//10
f 32//10 46//19 47//19 33//11
f 33//11 47//19 48//12 34//12
f 34//12 48//12 49//12 35//12
f 35//12 49//12 50//20 36//13
f 36//13 50//20 51//21 37//14
f 37//14 51//21 52//22 38//15
f 38//15 52//22 53//22 39//15
f 39//15 53//22 54//23 40//16
f 40//16 54//23 55//24 41//16
f 41//16 55//24 56//17 42//8
f 42//8 56//17 43//17 29//8
f 43//17 57//25 58//26 44//18
f 44//18 58//26 59//26 45//18
f 45//18 59//26 60//27 46//19
f 46//19 60//27 61//27 47//19
f 47//19 61//27 62//28 48//12
f 48//12 62//28 63//28 49//12
f 49//12 63//28 64//29 50//20
f 50//20 64//29 65//29 51//21
f 51//21 65//29 66//30 52//22
f 52//22 66//30 67//30 53//22
f 53//22 67//30 68//7 54//23
f 54//23 68//7 69//7 55//24
f 55//24 69//7 70//25 56//17
f 56//17 70//25 57//25 43//17
f 57//25 71//25 72//31 58//31
f 58//31 72//31 73//31 59//31
f 59//31 73//31 74//32 60//32
f 60//32 74//32 75//32 61//32
f 61//32 75//32 76//4 62//4
f 62//4 76//4 77//4 63//4
f 63//4 77//4 78//33 64//33
f 64//33 78//33 79//33 65//33
f 65//33 79//33 80//34 66//34
f 66//34 80//34 81//34 67//34
f 67//34 81//34 82//35 68//35
f 68//35 82//35 83//35 69//35
f 69//35 83//35 84//25 70//25
f 70//25 84//25 71//25 57//25
f 71//25 85//36 86//37 72//26
f 72//26 86//37 87//37 73//26
f 73//26 87//37 88//38 74//27
f 74//27 88//38 89//38 75//27
f 75//27 89//38 90//39 76//28
f 76//28 90//39 91//40 77//28
f 77//28 91//40 92//41 78//29
f 78//29 92//41 93//42 79//29
f 79//29 93//42 94//43 80//30
f 80//30 94//43 95//43 81//30
f 81//30 95//43 96//44 82//7
f 82//7 96//44 97//45 83//7
f 83//7 97//45 98//36 84//25
f 84//25 98//36 85//36 71//25
f 85//36 99//46 100//47 86//37
f 86//37 100//47 101//47 87//37
f 87//37 101//47 102//48 88//38
f 88//38 102//48 103//49 89//38
f 89//38 103//49 104//39 90//39
f 90//39 104//39 105//39 91//40
f 91//40 105//39 106//42 92//41
f 92//41 106//42 107//41 93//42
f 93//42 107//41 108//50 94//43
f 94//43 108//50 109//50 95//43
f 95//43 109//50 110//51 96//44
f 96//44 110//51 111//51 97//45
f 97//45 111//51 112//46 98//36
f 98//36 112//46 99//46 85//36
f 99//46 113//1 114//52 100//47
f 100//47 114//52 115//52 101//47
f 101//47 115//52 116//53 102//48
f 102//48 116//53 117//53 103//49
f 103//49 117//53 118//54 104//39
f 104//39 118//54 119//54 105//39
f 105//39 119//54 120//55 106//42
f 106//42 120//55 121//55 107//41
f 107//41 121//55 122//56 108//50
f 108//50 122//56 123//56 109//50
f 109//50 123//56 124//7 110//51
f 110//51 124//7 125//7 111//51
f 111//51 125//7 126//1 112//46
f 112//46 126//1 113//1 99//46
f 113//1 127//1 128//52 114//52
f 114//52 128//52 129//52 115//52
f 115//52 129//52 130//53 116//53
f 116//53 130//53 131//53 117//53
f 117//53 131//53 132//54 118//54
f 118//54 132//54 133//54 119//54
f 119//54 133//54 134//55 120//55
f 120//55 134//55 135//55 121//55
f 121//55 135//55 136//56 122//56
f 122//56 136//56 137//56 123//56
f 123//56 137//56 138//7 124//7
f 124//7 138//7 139//7 125//7
f 125//7 139//7 140//1 126//1
f 126//1 140//1 127//1 113//1
