o SelectorFrame
v -0.95 0 -0.95
v -0.95008164455459976 0.0015774894299460563 -0.95008164455459976
v -0.95008164455459976 0.0015774894299460563 -0.59991835544540029
v -0.95 0 -0.60000000000000009
v 0.45008164455459976 0.0015774894299460563 -0.59991835544540029
v 0.45 0 -0.60000000000000009
v 0.45008164455459976 0.0015774894299460563 -0.95008164455459976
v 0.45 0 -0.95
v -0.95032074646449916 0.003146231229042134 -0.95032074646449916
v -0.95032074646449916 0.003146231229042134 -0.59967925353550089
v 0.45032074646449921 0.003146231229042134 -0.59967925353550089
v 0.45032074646449921 0.003146231229042134 -0.95032074646449916
v -0.95070855809884824 0.004697477766438256 -0.95070855809884824
v -0.95070855809884824 0.004697477766438256 -0.5992914419011518
v 0.45070855809884824 0.004697477766438256 -0.5992914419011518
v 0.45070855809884824 0.004697477766438256 -0.95070855809884824
v -0.9512363318267969 0.0062224814112844433 -0.9512363318267969
v -0.9512363318267969 0.0062224814112844433 -0.59876366817320315
v 0.4512363318267969 0.0062224814112844433 -0.59876366817320315
v 0.4512363318267969 0.0062224814112844433 -0.9512363318267969
v -0.95189532001749522 0.0077124945327307192 -0.95189532001749522
v -0.95189532001749522 0.0077124945327307192 -0.59810467998250483
v 0.45189532001749527 0.0077124945327307192 -0.59810467998250483
v 0.45189532001749527 0.0077124945327307192 -0.95189532001749522
v -0.95267677504009329 0.0091587694999271038 -0.95267677504009329
v -0.95267677504009329 0.0091587694999271038 -0.59732322495990675
v 0.45267677504009329 0.0091587694999271038 -0.59732322495990675
v 0.45267677504009329 0.0091587694999271038 -0.95267677504009329
v -0.95357194926374111 0.010552558682023617 -0.95357194926374111
v -0.95357194926374111 0.010552558682023617 -0.59642805073625893
v 0.45357194926374106 0.010552558682023617 -0.59642805073625893
v 0.45357194926374106 0.010552558682023617 -0.95357194926374111
v -0.95457209505758855 0.011885114448170286 -0.95457209505758855
v -0.95457209505758855 0.011885114448170286 -0.59542790494241149
v 0.45457209505758855 0.011885114448170286 -0.59542790494241149
v 0.45457209505758855 0.011885114448170286 -0.95457209505758855
v -0.95566846479078582 0.013147689167517133 -0.95566846479078582
v -0.95566846479078582 0.013147689167517133 -0.59433153520921422
v 0.45566846479078582 0.013147689167517133 -0.59433153520921422
v 0.45566846479078582 0.013147689167517133 -0.95566846479078582
v -0.9568523108324829 0.014331535209214171 -0.9568523108324829
v -0.9568523108324829 0.014331535209214171 -0.59314768916751714
v 0.45685231083248284 0.014331535209214171 -0.59314768916751714
v 0.45685231083248284 0.014331535209214171 -0.9568523108324829
v -0.95811488555182966 0.015427904942411431 -0.95811488555182966
v -0.95811488555182966 0.015427904942411431 -0.59188511444817038
v 0.45811488555182972 0.015427904942411431 -0.59188511444817038
v 0.45811488555182972 0.015427904942411431 -0.95811488555182966
v -0.95944744131797632 0.016428050736258932 -0.95944744131797632
v -0.95944744131797632 0.016428050736258932 -0.59055255868202372
v 0.45944744131797638 0.016428050736258932 -0.59055255868202372
v 0.45944744131797638 0.016428050736258932 -0.95944744131797632
v -0.96084123050007286 0.017323224959906694 -0.96084123050007286
v -0.96084123050007286 0.017323224959906694 -0.58915876949992718
v 0.46084123050007292 0.017323224959906694 -0.58915876949992718
v 0.46084123050007292 0.017323224959906694 -0.96084123050007286
v -0.96228750546726927 0.018104679982504736 -0.96228750546726927
v -0.96228750546726927 0.018104679982504736 -0.58771249453273078
v 0.46228750546726927 0.018104679982504736 -0.58771249453273078
v 0.46228750546726927 0.018104679982504736 -0.96228750546726927
v -0.96377751858871552 0.018763668173203091 -0.96377751858871552
v -0.96377751858871552 0.018763668173203091 -0.58622248141128452
v 0.46377751858871558 0.018763668173203091 -0.58622248141128452
v 0.46377751858871558 0.018763668173203091 -0.96377751858871552
v -0.96530252223356172 0.019291441901151771 -0.96530252223356172
v -0.96530252223356172 0.019291441901151771 -0.58469747776643832
v 0.46530252223356172 0.019291441901151771 -0.58469747776643832
v 0.46530252223356172 0.019291441901151771 -0.96530252223356172
v -0.96685376877095786 0.019679253535500804 -0.96685376877095786
v -0.96685376877095786 0.019679253535500804 -0.58314623122904219
v 0.46685376877095786 0.019679253535500804 -0.58314623122904219
v 0.46685376877095786 0.019679253535500804 -0.96685376877095786
v -0.96842251057005391 0.0199183554454002 -0.96842251057005391
v -0.96842251057005391 0.0199183554454002 -0.58157748942994614
v 0.46842251057005396 0.0199183554454002 -0.58157748942994614
v 0.46842251057005396 0.0199183554454002 -0.96842251057005391
v -0.97 0.02 -0.97
v -0.97 0.02 -0.58000000000000007
v 0.47 0.02 -0.58000000000000007
v 0.47 0.02 -0.97
v -0.98 0.02 -0.98
v -0.98 0.02 -0.57000000000000006
v 0.48 0.02 -0.57000000000000006
v 0.48 0.02 -0.98
v -0.981577489429946 0.019918355445400208 -0.981577489429946
v -0.981577489429946 0.019918355445400208 -0.568422510570054
v 0.48157748942994605 0.019918355445400208 -0.568422510570054
v 0.48157748942994605 0.019918355445400208 -0.981577489429946
v -0.9831462312290421 0.0196792535355008 -0.9831462312290421
v -0.9831462312290421 0.0196792535355008 -0.56685376877095794
v 0.48314623122904216 0.0196792535355008 -0.56685376877095794
v 0.48314623122904216 0.0196792535355008 -0.9831462312290421
v -0.98469747776643823 0.019291441901151767 -0.98469747776643823
v -0.98469747776643823 0.019291441901151767 -0.56530252223356181
v 0.48469747776643823 0.019291441901151767 -0.56530252223356181
v 0.48469747776643823 0.019291441901151767 -0.98469747776643823
v -0.98622248141128444 0.018763668173203091 -0.98622248141128444
v -0.98622248141128444 0.018763668173203091 -0.56377751858871561
v 0.48622248141128444 0.018763668173203091 -0.56377751858871561
v 0.48622248141128444 0.018763668173203091 -0.98622248141128444
v -0.98771249453273069 0.018104679982504743 -0.98771249453273069
v -0.98771249453273069 0.018104679982504743 -0.56228750546726936
v 0.48771249453273069 0.018104679982504743 -0.56228750546726936
v 0.48771249453273069 0.018104679982504743 -0.98771249453273069
v -0.98915876949992709 0.017323224959906691 -0.98915876949992709
v -0.98915876949992709 0.017323224959906691 -0.560841230500073
v 0.48915876949992709 0.017323224959906691 -0.560841230500073
v 0.48915876949992709 0.017323224959906691 -0.98915876949992709
v -0.99055255868202363 0.016428050736258928 -0.99055255868202363
v -0.99055255868202363 0.016428050736258928 -0.55944744131797641
v 0.49055255868202363 0.016428050736258928 -0.55944744131797641
v 0.49055255868202363 0.016428050736258928 -0.99055255868202363
v -0.99188511444817029 0.015427904942411429 -0.99188511444817029
v -0.99188511444817029 0.015427904942411429 -0.55811488555182975
v 0.49188511444817029 0.015427904942411429 -0.55811488555182975
v 0.49188511444817029 0.015427904942411429 -0.99188511444817029
v -0.99314768916751717 0.014331535209214175 -0.99314768916751717
v -0.99314768916751717 0.014331535209214175 -0.55685231083248288
v 0.49314768916751711 0.014331535209214175 -0.55685231083248288
v 0.49314768916751711 0.014331535209214175 -0.99314768916751717
v -0.99433153520921413 0.013147689167517131 -0.99433153520921413
v -0.99433153520921413 0.013147689167517131 -0.55566846479078591
v 0.49433153520921419 0.013147689167517131 -0.55566846479078591
v 0.49433153520921419 0.013147689167517131 -0.99433153520921413
v -0.9954279049424114 0.011885114448170288 -0.9954279049424114
v -0.9954279049424114 0.011885114448170288 -0.55457209505758864
v 0.49542790494241146 0.011885114448170288 -0.55457209505758864
v 0.49542790494241146 0.011885114448170288 -0.9954279049424114
v -0.996428050736259 0.010552558682023622 -0.996428050736259
v -0.996428050736259 0.010552558682023622 -0.55357194926374109
v 0.49642805073625895 0.010552558682023622 -0.55357194926374109
v 0.49642805073625895 0.010552558682023622 -0.996428050736259
v -0.99732322495990666 0.0091587694999271038 -0.99732322495990666
v -0.99732322495990666 0.0091587694999271038 -0.55267677504009338
v 0.49732322495990672 0.0091587694999271038 -0.55267677504009338
v 0.49732322495990672 0.0091587694999271038 -0.99732322495990666
v -0.99810467998250474 0.00771249453273072 -0.99810467998250474
v -0.99810467998250474 0.00771249453273072 -0.55189532001749531
v 0.49810467998250474 0.00771249453273072 -0.55189532001749531
v 0.49810467998250474 0.00771249453273072 -0.99810467998250474
v -0.99876366817320306 0.0062224814112844433 -0.99876366817320306
v -0.99876366817320306 0.0062224814112844433 -0.551236331826797
v 0.49876366817320311 0.0062224814112844433 -0.551236331826797
v 0.49876366817320311 0.0062224814112844433 -0.99876366817320306
v -0.99929144190115182 0.0046974777664382577 -0.99929144190115182
v -0.99929144190115182 0.0046974777664382577 -0.55070855809884822
v 0.49929144190115177 0.0046974777664382577 -0.55070855809884822
v 0.49929144190115177 0.0046974777664382577 -0.99929144190115182
v -0.9996792535355008 0.003146231229042134 -0.9996792535355008
v -0.9996792535355008 0.003146231229042134 -0.55032074646449924
v 0.4996792535355008 0.003146231229042134 -0.55032074646449924
v 0.4996792535355008 0.003146231229042134 -0.9996792535355008
v -0.9999183554454002 0.001577489429946058 -0.9999183554454002
v -0.9999183554454002 0.001577489429946058 -0.55008164455459985
v 0.4999183554454002 0.001577489429946058 -0.55008164455459985
v 0.4999183554454002 0.001577489429946058 -0.9999183554454002
v -1 0 -1
v -1 0 -0.55
v 0.5 0 -0.55
v 0.5 0 -1
vn 0.99866334261306466 0.05168682734411835 0
vn 0.9948436394642366 0.10142057492221183 0
vn 0 0.051686827344118336 -0.99866334261306455
vn 0 0.10142057492221185 -0.9948436394642366
vn -0.99866334261306644 0.051686827344083294 0
vn -0.9948436394642366 0.10142057492221183 0
vn 0 0.051686827344118336 0.99866334261306455
vn 0 0.10142057492221185 0.9948436394642366
vn 0.9804040750007581 0.19699708049082337 0
vn 0 0.1969970804908234 -0.9804040750007581
vn -0.9804040750007581 0.19699708049082337 0
vn 0 0.1969970804908234 0.9804040750007581
vn 0.95844912147473071 0.28526352999343724 0
vn 0 0.28526352999343724 -0.95844912147473094
vn -0.95844912147473549 0.28526352999342136 0
vn 0 0.28526352999343724 0.95844912147473094
vn 0.93051065200426242 0.366264831108042 0
vn 0 0.36626483110804192 -0.93051065200426242
vn -0.93051065200425653 0.36626483110805674 0
vn 0 0.36626483110804192 0.93051065200426242
vn 0.89778941014256419 0.44042499365484111 0
vn 0 0.440424993654841 -0.89778941014256408
vn -0.89778941014256419 0.44042499365484111 0
vn 0 0.440424993654841 0.89778941014256408
vn 0.86113766915377032 0.5083718272725305 0
vn 0 0.50837182727253061 -0.86113766915377032
vn -0.861137669153785 0.50837182727250552 0
vn 0 0.50837182727253061 0.86113766915377032
vn 0.82108415048061167 0.57080716343571958 0
vn 0 0.57080716343571958 -0.82108415048061167
vn -0.82108415048061167 0.57080716343571958 0
vn 0 0.57080716343571958 0.82108415048061167
vn 0.77787544859024449 0.62841848037794512 0
vn 0 0.628418480377945 -0.7778754485902446
vn -0.77787544859023638 0.62841848037795511 0
vn 0 0.628418480377945 0.7778754485902446
vn 0.731519004831891 0.68182105098754464 0
vn 0 0.68182105098754453 -0.73151900483189114
vn -0.73151900483189924 0.68182105098753576 0
vn 0 0.68182105098754453 0.73151900483189114
vn 0.68182105098754331 0.73151900483189214 0
vn 0 0.73151900483189214 -0.68182105098754331
vn -0.68182105098753509 0.7315190048319 0
vn 0 0.73151900483189214 0.68182105098754331
vn 0.62841848037796821 0.77787544859022584 0
vn 0 0.77787544859022584 -0.62841848037796832
vn -0.628418480377952 0.777875448590239 0
vn 0 0.77787544859022584 0.62841848037796832
vn 0.5708071634357178 0.821084150480613 0
vn 0 0.8210841504806129 -0.57080716343571769
vn -0.5708071634357178 0.821084150480613 0
vn 0 0.8210841504806129 0.57080716343571769
vn 0.50837182727250341 0.86113766915378642 0
vn 0 0.86113766915378631 -0.50837182727250352
vn -0.50837182727251085 0.86113766915378209 0
vn 0 0.86113766915378631 0.50837182727250352
vn 0.44042499365484228 0.89778941014256364 0
vn 0 0.89778941014256353 -0.44042499365484217
vn -0.44042499365484228 0.89778941014256364 0
vn 0 0.89778941014256353 0.44042499365484217
vn 0.36626483110805941 0.93051065200425542 0
vn 0 0.93051065200425553 -0.36626483110805941
vn -0.36626483110805941 0.93051065200425542 0
vn 0 0.93051065200425553 0.36626483110805941
vn 0.28526352999342613 0.95844912147473416 0
vn 0 0.958449121474734 -0.28526352999342608
vn -0.28526352999343085 0.95844912147473271 0
vn 0 0.958449121474734 0.28526352999342608
vn 0.1969970804908075 0.98040407500076132 0
vn 0 0.98040407500076121 -0.1969970804908075
vn -0.19699708049080414 0.980404075000762 0
vn 0 0.98040407500076121 0.1969970804908075
vn 0.10142057492221129 0.99484363946423671 0
vn 0 0.9948436394642366 -0.10142057492221125
vn -0.10142057492221129 0.99484363946423671 0
vn 0 0.9948436394642366 0.10142057492221125
vn 0.051686827344115824 0.99866334261306466 0
vn 0 0.99866334261306478 -0.051686827344115831
vn -0.051686827344117635 0.99866334261306466 0
vn 0 0.99866334261306478 0.051686827344115831
vn 0 1 0
vn -0.051686827344111445 0.998663342613065 0
vn -0.10142057492221239 0.99484363946423648 0
vn 0 0.998663342613065 0.051686827344111445
vn 0 0.9948436394642366 0.10142057492221236
vn 0.051686827344111445 0.998663342613065 0
vn 0.10142057492221061 0.99484363946423682 0
vn 0 0.998663342613065 -0.051686827344111445
vn 0 0.9948436394642366 -0.10142057492221236
vn -0.19699708049081063 0.98040407500076054 0
vn 0 0.98040407500076066 0.19699708049081066
vn 0.19699708049081063 0.98040407500076054 0
vn 0 0.98040407500076066 -0.19699708049081066
vn -0.28526352999342508 0.95844912147473438 0
vn 0 0.95844912147473449 0.28526352999342514
vn 0.28526352999342985 0.958449121474733 0
vn 0 0.95844912147473449 -0.28526352999342514
vn -0.36626483110805669 0.93051065200425664 0
vn 0 0.93051065200425664 0.36626483110805669
vn 0.36626483110805669 0.93051065200425664 0
vn 0 0.93051065200425664 -0.36626483110805669
vn -0.44042499365484306 0.89778941014256319 0
vn 0 0.89778941014256319 0.44042499365484306
vn 0.44042499365484306 0.89778941014256319 0
vn 0 0.89778941014256319 -0.44042499365484306
vn -0.50837182727250574 0.86113766915378487 0
vn 0 0.861137669153785 0.50837182727250585
vn 0.50837182727250574 0.86113766915378487 0
vn 0 0.861137669153785 -0.50837182727250585
vn -0.57080716343571747 0.82108415048061312 0
vn 0 0.82108415048061312 0.57080716343571725
vn 0.57080716343571747 0.82108415048061312 0
vn 0 0.82108415048061312 -0.57080716343571725
vn -0.62841848037795067 0.77787544859023994 0
vn 0 0.77787544859024 0.62841848037795078
vn 0.62841848037795889 0.77787544859023339 0
vn 0 0.77787544859024 -0.62841848037795078
vn -0.6818210509875432 0.73151900483189214 0
vn 0 0.73151900483189225 0.6818210509875432
vn 0.681821050987535 0.73151900483189991 0
vn 0 0.73151900483189225 -0.6818210509875432
vn -0.73151900483190768 0.68182105098752654 0
vn 0 0.68182105098752643 0.73151900483190779
vn 0.73151900483189114 0.68182105098754442 0
vn 0 0.68182105098752643 -0.73151900483190779
vn -0.77787544859022761 0.62841848037796633 0
vn 0 0.62841848037796622 0.7778754485902275
vn 0.77787544859023572 0.62841848037795622 0
vn 0 0.62841848037796622 -0.7778754485902275
vn -0.82108415048061179 0.57080716343571936 0
vn 0 0.57080716343571936 0.82108415048061179
vn 0.82108415048061179 0.57080716343571936 0
vn 0 0.57080716343571936 -0.82108415048061179
vn -0.86113766915378531 0.50837182727250507 0
vn 0 0.50837182727250507 0.86113766915378542
vn 0.86113766915378531 0.50837182727250507 0
vn 0 0.50837182727250507 -0.86113766915378542
vn -0.89778941014256408 0.44042499365484111 0
vn 0 0.44042499365484106 0.89778941014256408
vn 0.89778941014256408 0.44042499365484111 0
vn 0 0.44042499365484106 -0.89778941014256408
vn -0.93051065200425076 0.36626483110807173 0
vn 0 0.36626483110807168 0.93051065200425076
vn 0.93051065200425642 0.36626483110805685 0
vn 0 0.36626483110807168 -0.93051065200425076
vn -0.95844912147473083 0.28526352999343724 0
vn 0 0.28526352999343724 0.95844912147473083
vn 0.9584491214747356 0.28526352999342136 0
vn 0 0.28526352999343724 -0.95844912147473083
vn -0.98040407500076476 0.19699708049078982 0
vn 0 0.19699708049078987 0.98040407500076487
vn 0.98040407500076143 0.19699708049080664 0
vn 0 0.19699708049078987 -0.98040407500076487
vn -0.99484363946423648 0.10142057492221185 0
vn 0 0.10142057492221186 0.9948436394642366
vn 0.99484363946423648 0.10142057492221185 0
vn 0 0.10142057492221186 -0.9948436394642366
vn -0.99866334261306466 0.05168682734411828 0
vn 0 0.051686827344118287 0.99866334261306466
vn 0.99866334261306466 0.05168682734411828 0
vn 0 0.051686827344118287 -0.99866334261306466
vn 0 -1 0
g SelectorFrame
f 1//1 2//2 3//2 4//1
f 4//3 3//4 5//4 6//3
f 6//5 5//6 7//6 8//5
f 8//7 7//8 2//8 1//7
f 2//2 9//9 10//9 3//2
f 3//4 10//10 11//10 5//4
f 5//6 11//11 12//11 7//6
f 7//8 12//12 9//12 2//8
f 9//9 13//13 14//13 10//9
f 10//10 14//14 15//14 11//10
f 11//11 15//15 16//15 12//11
f 12//12 16//16 13//16 9//12
f 13//13 17//17 18//17 14//13
f 14//14 18//18 19//18 15//14
f 15//15 19//19 20//19 16//15
f 16//16 20//20 17//20 13//16
f 17//17 21//21 22//21 18//17
f 18//18 22//22 23//22 19//18
f 19//19 23//23 24//23 20//19
f 20//20 24//24 21//24 17//20
f 21//21 25//25 26//25 22//21
f 22//22 26//26 27//26 23//22
f 23//23 27//27 28//27 24//23
f 24//24 28//28 25//28 21//24
f 25//25 29//29 30//29 26//25
f 26//26 30//30 31//30 27//26
f 27//27 31//31 32//31 28//27
f 28//28 32//32 29//32 25//28
f 29//29 33//33 34//33 30//29
f 30//30 34//34 35//34 31//30
f 31//31 35//35 36//35 32//31
f 32//32 36//36 33//36 29//32
f 33//33 37//37 38//37 34//33
f 34//34 38//38 39//38 35//34
f 35//35 39//39 40//39 36//35
f 36//36 40//40 37//40 33//36
f 37//37 41//41 42//41 38//37
f 38//38 42//42 43//42 39//38
f 39//39 43//43 44//43 40//39
f 40//40 44//44 41//44 37//40
f 41//41 45//45 46//45 42//41
f 42//42 46//46 47//46 43//42
f 43//43 47//47 48//47 44//43
f 44//44 48//48 45//48 41//44
f 45//45 49//49 50//49 46//45
f 46//46 50//50 51//50 47//46
f 47//47 51//51 52//51 48//47
f 48//48 52//52 49//52 45//48
f 49//49 53//53 54//53 50//49
f 50//50 54//54 55//54 51//50
f 51//51 55//55 56//55 52//51
f 52//52 56//56 53//56 49//52
f 53//53 57//57 58//57 54//53
f 54//54 58//58 59//58 55//54
f 55//55 59//59 60//59 56//55
f 56//56 60//60 57//60 53//56
f 57//57 61//61 62//61 58//57
f 58//58 62//62 63//62 59//58
f 59//59 63//63 64//63 60//59
f 60//60 64//64 61//64 57//60
f 61//61 65//65 66//65 62//61
f 62//62 66//66 67//66 63//62
f 63//63 67//67 68//67 64//63
f 64//64 68//68 65//68 61//64
f 65//65 69//69 70//69 66//65
f 66//66 70//70 71//70 67//66
f 67//67 71//71 72//71 68//67
f 68//68 72//72 69//72 65//68
f 69//69 73//73 74//73 70//69
f 70//70 74//74 75//74 71//70
f 71//71 75//75 76//75 72//71
f 72//72 76//76 73//76 69//72
f 73//73 77//77 78//77 74//73
f 74//74 78//78 79//78 75//74
f 75//75 79//79 80//79 76//75
f 76//76 80//80 77//80 73//76
f 77//81 81//81 82//81 78//81
f 78//81 82//81 83//81 79//81
f 79//81 83//81 84//81 80//81
f 80//81 84//81 81//81 77//81
f 81//82 85//83 86//83 82//82
f 82//84 86//85 87//85 83//84
f 83//86 87//87 88//87 84//86
f 84//88 88//89 85//89 81//88
f 85//83 89//90 90//90 86//83
f 86//85 90//91 91//91 87//85
f 87//87 91//92 92//92 88//87
f 88//89 92//93 89//93 85//89
f 89//90 93//94 94//94 90//90
f 90//91 94//95 95//95 91//91
f 91//92 95//96 96//96 92//92
f 92//93 96//97 93//97 89//93
f 93//94 97//98 98//98 94//94
f 94//95 98//99 99//99 95//95
f 95//96 99//100 100//100 96//96
f 96//97 100//101 97//101 93//97
f 97//98 101//102 102//102 98//98
f 98//99 102//103 103//103 99//99
f 99//100 103//104 104//104 100//100
f 100//101 104//105 101//105 97//101
f 101//102 105//106 106//106 102//102
f 102//103 106//107 107//107 103//103
f 103//104 107//108 108//108 104//104
f 104//105 108//109 105//109 101//105
f 105//106 109//110 110//110 106//106
f 106//107 110//111 111//111 107//107
f 107//108 111//112 112//112 108//108
f 108//109 112//113 109//113 105//109
f 109//110 113//114 114//114 110//110
f 110//111 114//115 115//115 111//111
f 111//112 115//116 116//116 112//112
f 112//113 116//117 113//117 109//113
f 113//114 117//118 118//118 114//114
f 114//115 118//119 119//119 115//115
f 115//116 119//120 120//120 116//116
f 116//117 120//121 117//121 113//117
f 117//118 121//122 122//122 118//118
f 118//119 122//123 123//123 119//119
f 119//120 123//124 124//124 120//120
f 120//121 124//125 121//125 117//121
f 121//122 125//126 126//126 122//122
f 122//123 126//127 127//127 123//123
f 123//124 127//128 128//128 124//124
f 124//125 128//129 125//129 121//125
f 125//126 129//130 130//130 126//126
f 126//127 130//131 131//131 127//127
f 127//128 131//132 132//132 128//128
f 128//129 132//133 129//133 125//129
f 129//130 133//134 134//134 130//130
f 130//131 134//135 135//135 131//131
f 131//132 135//136 136//136 132//132
f 132//133 136//137 133//137 129//133
f 133//134 137//138 138//138 134//134
f 134//135 138//139 139//139 135//135
f 135//136 139//140 140//140 136//136
f 136//137 140//141 137//141 133//137
f 137//138 141//142 142//142 138//138
f 138//139 142//143 143//143 139//139
f 139//140 143//144 144//144 140//140
f 140//141 144//145 141//145 137//141
f 141//142 145//146 146//146 142//142
f 142//143 146//147 147//147 143//143
f 143//144 147//148 148//148 144//144
f 144//145 148//149 145//149 141//145
f 145//146 149//150 150//150 146//146
f 146//147 150//151 151//151 147//147
f 147//148 151//152 152//152 148//148
f 148//149 152//153 149//153 145//149
f 149//150 153//154 154//154 150//150
f 150//151 154//155 155//155 151//151
f 151//152 155//156 156//156 152//152
f 152//153 156//157 153//157 149//153
f 153//154 157//158 158//158 154//154
f 154//155 158//159 159//159 155//155
f 155//156 159//160 160//160 156//156
f 156//157 160//161 157//161 153//157
f 157//162 1//162 4//162 158//162
f 158//162 4//162 6//162 159//162
f 159//162 6//162 8//162 160//162
f 160//162 8//162 1//162 157//162
