<?xml version="1.0" encoding="UTF-8" standalone="no"?>
<svg
   xmlns:dc="http://purl.org/dc/elements/1.1/"
   xmlns:cc="http://creativecommons.org/ns#"
   xmlns:rdf="http://www.w3.org/1999/02/22-rdf-syntax-ns#"
   xmlns:svg="http://www.w3.org/2000/svg"
   xmlns="http://www.w3.org/2000/svg"
   xmlns:sodipodi="http://sodipodi.sourceforge.net/DTD/sodipodi-0.dtd"
   xmlns:inkscape="http://www.inkscape.org/namespaces/inkscape"
   version="1.1"
   viewBox="0.0 0.0 348.0 348.0"
   fill="none"
   width="100%"
   height="100%"
   id="svg2985"
   inkscape:version="0.48.4 r9939"
   sodipodi:docname="Component.svg">
  <metadata
     id="metadata2994">
    <rdf:RDF>
      <cc:Work
         rdf:about="">
        <dc:format>image/svg+xml</dc:format>
        <dc:type
           rdf:resource="http://purl.org/dc/dcmitype/StillImage" />
      </cc:Work>
    </rdf:RDF>
  </metadata>
  <defs
     id="defs2992" />
  <sodipodi:namedview
     pagecolor="#ffffff"
     bordercolor="#666666"
     borderopacity="1"
     objecttolerance="10"
     gridtolerance="10"
     guidetolerance="10"
     inkscape:pageopacity="0"
     inkscape:pageshadow="2"
     inkscape:window-width="1840"
     inkscape:window-height="1177"
     id="namedview2990"
     showgrid="true"
     inkscape:zoom="1.9506394"
     inkscape:cx="124.91619"
     inkscape:cy="159.71876"
     inkscape:window-x="-8"
     inkscape:window-y="-8"
     inkscape:window-maximized="1"
     inkscape:current-layer="svg2985">
    <inkscape:grid
       type="xygrid"
       id="grid2996"
       empspacing="5"
       visible="true"
       enabled="true"
       snapvisiblegridlinesonly="true"
       spacingx="10px"
       spacingy="10px" />
  </sodipodi:namedview>
  <path
     d="m5.07874 5.7758217l336.9134 0l0 337.6693l-336.9134 0z"
     stroke-width="2.0"
     stroke="#000000"
     fill-rule="nonzero"
     id="path2986" />
  <path
     d="m282.73444 40.553925l0 0c0 -8.375591 6.966034 -15.165352 15.5590515 -15.165352l0 0c4.126526 0 8.084015 1.5977726 11.001923 4.441828c2.9178772 2.844057 4.557129 6.7014217 4.557129 10.723524l0 0c0 8.375595 -6.9660034 15.165356 -15.5590515 15.165356l0 0c-8.593018 0 -15.5590515 -6.7897606 -15.5590515 -15.165356z"
     stroke-width="2.0"
     stroke="#000000"
     fill-rule="nonzero"
     id="path2988" />
  <path
     style="fill:#000000;fill-opacity:1;stroke:none"
     d="M 260,28 C 260,68 280,88 320,88 L 320,248 100,248 C 100,208 80,188 40,188 L 40,28 z"
     id="path2998"
     inkscape:connector-curvature="0"
     sodipodi:nodetypes="ccccccc" />
  <path
     sodipodi:type="arc"
     style="color:#000000;fill:none;stroke:#000000;stroke-width:2;stroke-linecap:butt;stroke-linejoin:miter;stroke-miterlimit:4;stroke-opacity:1;stroke-dasharray:none;stroke-dashoffset:0;marker:none;visibility:visible;display:inline;overflow:visible;enable-background:accumulate"
     id="path3000"
     sodipodi:cx="50"
     sodipodi:cy="238"
     sodipodi:rx="30"
     sodipodi:ry="30"
     d="M 80,238 A 30,30 0 1 1 20,238 30,30 0 1 1 80,238 z" />
  <path
     style="fill:#000000;fill-opacity:1;stroke:none"
     d="M 40,288 40,328 20,308 z"
     id="path3017"
     inkscape:connector-curvature="0"
     sodipodi:nodetypes="cccc" />
  <path
     style="fill:#000000;fill-opacity:1;stroke:none"
     d="M 300,288 300,328 320,308 z"
     id="path3030"
     inkscape:connector-curvature="0"
     sodipodi:nodetypes="cccc" />
  <rect
     style="color:#000000;fill:none;stroke:#000000;stroke-width:2;stroke-linecap:butt;stroke-linejoin:miter;stroke-miterlimit:4;stroke-opacity:1;stroke-dasharray:none;stroke-dashoffset:0;marker:none;visibility:visible;display:inline;overflow:visible;enable-background:accumulate"
     id="rect3819"
     width="220"
     height="40"
     x="60"
     y="288" />
  <path
     sodipodi:type="arc"
     style="color:#000000;fill:#d2d2d2;fill-opacity:1;fill-rule:nonzero;stroke:none;stroke-width:2;marker:none;visibility:visible;display:inline;overflow:visible;enable-background:accumulate"
     id="path3777"
     sodipodi:cx="75"
     sodipodi:cy="63"
     sodipodi:rx="25"
     sodipodi:ry="25"
     d="M 100,63 A 25,25 0 1 1 50,63 25,25 0 1 1 100,63 z" />
  <path
     sodipodi:type="arc"
     style="color:#000000;fill:#d2d2d2;fill-opacity:1;fill-rule:nonzero;stroke:none;stroke-width:2;marker:none;visibility:visible;display:inline;overflow:visible;enable-background:accumulate"
     id="path3777-2"
     sodipodi:cx="75"
     sodipodi:cy="63"
     sodipodi:rx="25"
     sodipodi:ry="25"
     d="M 100,63 A 25,25 0 1 1 50,63 25,25 0 1 1 100,63 z"
     transform="translate(107.17385,53.315851)" />
  <path
     transform="translate(158.6692,17.942835)"
     sodipodi:type="arc"
     style="color:#000000;fill:#d2d2d2;fill-opacity:1;fill-rule:nonzero;stroke:none;stroke-width:2;marker:none;visibility:visible;display:inline;overflow:visible;enable-background:accumulate"
     id="path3777-3"
     sodipodi:cx="75"
     sodipodi:cy="63"
     sodipodi:rx="25"
     sodipodi:ry="25"
     d="M 100,63 A 25,25 0 1 1 50,63 25,25 0 1 1 100,63 z" />
  <path
     transform="translate(28.222106,85.885669)"
     sodipodi:type="arc"
     style="color:#000000;fill:#d2d2d2;fill-opacity:1;fill-rule:nonzero;stroke:none;stroke-width:2;marker:none;visibility:visible;display:inline;overflow:visible;enable-background:accumulate"
     id="path3777-1"
     sodipodi:cx="75"
     sodipodi:cy="63"
     sodipodi:rx="25"
     sodipodi:ry="25"
     d="M 100,63 A 25,25 0 1 1 50,63 25,25 0 1 1 100,63 z" />
  <path
     transform="translate(181.25869,144.36082)"
     sodipodi:type="arc"
     style="color:#000000;fill:#d2d2d2;fill-opacity:1;fill-rule:nonzero;stroke:none;stroke-width:2;marker:none;visibility:visible;display:inline;overflow:visible;enable-background:accumulate"
     id="path3777-6"
     sodipodi:cx="75"
     sodipodi:cy="63"
     sodipodi:rx="25"
     sodipodi:ry="25"
     d="M 100,63 A 25,25 0 1 1 50,63 25,25 0 1 1 100,63 z" />
  <path
     transform="translate(107.17385,144.36082)"
     sodipodi:type="arc"
     style="color:#000000;fill:#d2d2d2;fill-opacity:1;fill-rule:nonzero;stroke:none;stroke-width:2;marker:none;visibility:visible;display:inline;overflow:visible;enable-background:accumulate"
     id="path3777-8"
     sodipodi:cx="75"
     sodipodi:cy="63"
     sodipodi:rx="25"
     sodipodi:ry="25"
     d="M 100,63 A 25,25 0 1 1 50,63 25,25 0 1 1 100,63 z" />
</svg>
